<?xml version="1.0" encoding="UTF-8" standalone="no"?>
<!DOCTYPE svg PUBLIC "-//W3C//DTD SVG 1.1//EN"
 "http://www.w3.org/Graphics/SVG/1.1/DTD/svg11.dtd">
<!-- Generated by graphviz version 2.42.3 (0)
 -->
<!-- Title: %3 Pages: 1 -->
<svg width="2042pt" height="771pt"
 viewBox="0.00 0.00 2042.00 771.00" xmlns="http://www.w3.org/2000/svg" xmlns:xlink="http://www.w3.org/1999/xlink">
<g id="graph0" class="graph" transform="scale(1 1) rotate(0) translate(4 767)">
<title>%3</title>
<polygon fill="white" stroke="transparent" points="-4,4 -4,-767 2038,-767 2038,4 -4,4"/>
<!-- 0 -->
<g id="node1" class="node">
<title>0</title>
<ellipse fill="none" stroke="black" cx="1917" cy="-153" rx="27" ry="18"/>
<text text-anchor="middle" x="1917" y="-149.3" font-family="Times,serif" font-size="14.00">0</text>
</g>
<!-- 71 -->
<g id="node2" class="node">
<title>71</title>
<ellipse fill="none" stroke="black" cx="2007" cy="-153" rx="27" ry="18"/>
<text text-anchor="middle" x="2007" y="-149.3" font-family="Times,serif" font-size="14.00">71</text>
</g>
<!-- 0&#45;&gt;71 -->
<g id="edge1" class="edge">
<title>0&#45;&gt;71</title>
<path fill="none" stroke="black" d="M1942.51,-146.88C1951.4,-146.27 1961.62,-146.1 1971.22,-146.38"/>
<polygon fill="black" stroke="black" points="1971.16,-149.88 1981.31,-146.86 1971.49,-142.89 1971.16,-149.88"/>
</g>
<!-- 71&#45;&gt;0 -->
<g id="edge72" class="edge">
<title>71&#45;&gt;0</title>
<path fill="none" stroke="black" d="M1981.31,-159.14C1972.41,-159.74 1962.18,-159.9 1952.59,-159.61"/>
<polygon fill="black" stroke="black" points="1952.67,-156.11 1942.51,-159.12 1952.33,-163.1 1952.67,-156.11"/>
</g>
<!-- 1 -->
<g id="node3" class="node">
<title>1</title>
<ellipse fill="none" stroke="black" cx="297" cy="-329" rx="27" ry="18"/>
<text text-anchor="middle" x="297" y="-325.3" font-family="Times,serif" font-size="14.00">1</text>
</g>
<!-- 75 -->
<g id="node4" class="node">
<title>75</title>
<ellipse fill="none" stroke="black" cx="387" cy="-329" rx="27" ry="18"/>
<text text-anchor="middle" x="387" y="-325.3" font-family="Times,serif" font-size="14.00">75</text>
</g>
<!-- 1&#45;&gt;75 -->
<g id="edge2" class="edge">
<title>1&#45;&gt;75</title>
<path fill="none" stroke="black" d="M324.4,-329C332.39,-329 341.31,-329 349.82,-329"/>
<polygon fill="black" stroke="black" points="349.92,-332.5 359.92,-329 349.92,-325.5 349.92,-332.5"/>
</g>
<!-- 51 -->
<g id="node63" class="node">
<title>51</title>
<ellipse fill="none" stroke="black" cx="477" cy="-329" rx="27" ry="18"/>
<text text-anchor="middle" x="477" y="-325.3" font-family="Times,serif" font-size="14.00">51</text>
</g>
<!-- 75&#45;&gt;51 -->
<g id="edge76" class="edge">
<title>75&#45;&gt;51</title>
<path fill="none" stroke="black" d="M412.51,-322.88C421.4,-322.27 431.62,-322.1 441.22,-322.38"/>
<polygon fill="black" stroke="black" points="441.16,-325.88 451.31,-322.86 441.49,-318.89 441.16,-325.88"/>
</g>
<!-- 2 -->
<g id="node5" class="node">
<title>2</title>
<ellipse fill="none" stroke="black" cx="207" cy="-383" rx="27" ry="18"/>
<text text-anchor="middle" x="207" y="-379.3" font-family="Times,serif" font-size="14.00">2</text>
</g>
<!-- 83 -->
<g id="node6" class="node">
<title>83</title>
<ellipse fill="none" stroke="black" cx="297" cy="-383" rx="27" ry="18"/>
<text text-anchor="middle" x="297" y="-379.3" font-family="Times,serif" font-size="14.00">83</text>
</g>
<!-- 2&#45;&gt;83 -->
<g id="edge3" class="edge">
<title>2&#45;&gt;83</title>
<path fill="none" stroke="black" d="M234.4,-383C242.39,-383 251.31,-383 259.82,-383"/>
<polygon fill="black" stroke="black" points="259.92,-386.5 269.92,-383 259.92,-379.5 259.92,-386.5"/>
</g>
<!-- 14 -->
<g id="node29" class="node">
<title>14</title>
<ellipse fill="none" stroke="black" cx="387" cy="-437" rx="27" ry="18"/>
<text text-anchor="middle" x="387" y="-433.3" font-family="Times,serif" font-size="14.00">14</text>
</g>
<!-- 83&#45;&gt;14 -->
<g id="edge84" class="edge">
<title>83&#45;&gt;14</title>
<path fill="none" stroke="black" d="M317.53,-394.98C329.38,-402.26 344.7,-411.66 357.84,-419.72"/>
<polygon fill="black" stroke="black" points="356.17,-422.8 366.52,-425.05 359.83,-416.84 356.17,-422.8"/>
</g>
<!-- 3 -->
<g id="node7" class="node">
<title>3</title>
<ellipse fill="none" stroke="black" cx="297" cy="-545" rx="27" ry="18"/>
<text text-anchor="middle" x="297" y="-541.3" font-family="Times,serif" font-size="14.00">3</text>
</g>
<!-- 73 -->
<g id="node8" class="node">
<title>73</title>
<ellipse fill="none" stroke="black" cx="387" cy="-491" rx="27" ry="18"/>
<text text-anchor="middle" x="387" y="-487.3" font-family="Times,serif" font-size="14.00">73</text>
</g>
<!-- 3&#45;&gt;73 -->
<g id="edge4" class="edge">
<title>3&#45;&gt;73</title>
<path fill="none" stroke="black" d="M317.53,-533.02C329.38,-525.74 344.7,-516.34 357.84,-508.28"/>
<polygon fill="black" stroke="black" points="359.83,-511.16 366.52,-502.95 356.17,-505.2 359.83,-511.16"/>
</g>
<!-- 31 -->
<g id="node30" class="node">
<title>31</title>
<ellipse fill="none" stroke="black" cx="477" cy="-464" rx="27" ry="18"/>
<text text-anchor="middle" x="477" y="-460.3" font-family="Times,serif" font-size="14.00">31</text>
</g>
<!-- 73&#45;&gt;31 -->
<g id="edge74" class="edge">
<title>73&#45;&gt;31</title>
<path fill="none" stroke="black" d="M412.05,-483.62C421.44,-480.74 432.36,-477.39 442.5,-474.28"/>
<polygon fill="black" stroke="black" points="443.75,-477.55 452.29,-471.28 441.7,-470.86 443.75,-477.55"/>
</g>
<!-- 4 -->
<g id="node9" class="node">
<title>4</title>
<ellipse fill="none" stroke="black" cx="27" cy="-695" rx="27" ry="18"/>
<text text-anchor="middle" x="27" y="-691.3" font-family="Times,serif" font-size="14.00">4</text>
</g>
<!-- 59 -->
<g id="node10" class="node">
<title>59</title>
<ellipse fill="none" stroke="black" cx="117" cy="-668" rx="27" ry="18"/>
<text text-anchor="middle" x="117" y="-664.3" font-family="Times,serif" font-size="14.00">59</text>
</g>
<!-- 4&#45;&gt;59 -->
<g id="edge5" class="edge">
<title>4&#45;&gt;59</title>
<path fill="none" stroke="black" d="M52.05,-687.62C61.44,-684.74 72.36,-681.39 82.5,-678.28"/>
<polygon fill="black" stroke="black" points="83.75,-681.55 92.29,-675.28 81.7,-674.86 83.75,-681.55"/>
</g>
<!-- 13 -->
<g id="node27" class="node">
<title>13</title>
<ellipse fill="none" stroke="black" cx="207" cy="-728" rx="27" ry="18"/>
<text text-anchor="middle" x="207" y="-724.3" font-family="Times,serif" font-size="14.00">13</text>
</g>
<!-- 59&#45;&gt;13 -->
<g id="edge60" class="edge">
<title>59&#45;&gt;13</title>
<path fill="none" stroke="black" d="M136.66,-680.72C148.91,-689.08 165.14,-700.14 178.81,-709.46"/>
<polygon fill="black" stroke="black" points="177.13,-712.55 187.36,-715.29 181.07,-706.77 177.13,-712.55"/>
</g>
<!-- 5 -->
<g id="node11" class="node">
<title>5</title>
<ellipse fill="none" stroke="black" cx="567" cy="-140" rx="27" ry="18"/>
<text text-anchor="middle" x="567" y="-136.3" font-family="Times,serif" font-size="14.00">5</text>
</g>
<!-- 65 -->
<g id="node12" class="node">
<title>65</title>
<ellipse fill="none" stroke="black" cx="657" cy="-140" rx="27" ry="18"/>
<text text-anchor="middle" x="657" y="-136.3" font-family="Times,serif" font-size="14.00">65</text>
</g>
<!-- 5&#45;&gt;65 -->
<g id="edge6" class="edge">
<title>5&#45;&gt;65</title>
<path fill="none" stroke="black" d="M594.4,-140C602.39,-140 611.31,-140 619.82,-140"/>
<polygon fill="black" stroke="black" points="619.92,-143.5 629.92,-140 619.92,-136.5 619.92,-143.5"/>
</g>
<!-- 24 -->
<g id="node46" class="node">
<title>24</title>
<ellipse fill="none" stroke="black" cx="747" cy="-99" rx="27" ry="18"/>
<text text-anchor="middle" x="747" y="-95.3" font-family="Times,serif" font-size="14.00">24</text>
</g>
<!-- 65&#45;&gt;24 -->
<g id="edge66" class="edge">
<title>65&#45;&gt;24</title>
<path fill="none" stroke="black" d="M679.75,-129.87C690.41,-124.9 703.43,-118.83 715.1,-113.4"/>
<polygon fill="black" stroke="black" points="716.91,-116.41 724.5,-109.02 713.95,-110.07 716.91,-116.41"/>
</g>
<!-- 6 -->
<g id="node13" class="node">
<title>6</title>
<ellipse fill="none" stroke="black" cx="387" cy="-275" rx="27" ry="18"/>
<text text-anchor="middle" x="387" y="-271.3" font-family="Times,serif" font-size="14.00">6</text>
</g>
<!-- 80 -->
<g id="node14" class="node">
<title>80</title>
<ellipse fill="none" stroke="black" cx="477" cy="-275" rx="27" ry="18"/>
<text text-anchor="middle" x="477" y="-271.3" font-family="Times,serif" font-size="14.00">80</text>
</g>
<!-- 6&#45;&gt;80 -->
<g id="edge7" class="edge">
<title>6&#45;&gt;80</title>
<path fill="none" stroke="black" d="M414.4,-275C422.39,-275 431.31,-275 439.82,-275"/>
<polygon fill="black" stroke="black" points="439.92,-278.5 449.92,-275 439.92,-271.5 439.92,-278.5"/>
</g>
<!-- 7 -->
<g id="node15" class="node">
<title>7</title>
<ellipse fill="none" stroke="black" cx="567" cy="-248" rx="27" ry="18"/>
<text text-anchor="middle" x="567" y="-244.3" font-family="Times,serif" font-size="14.00">7</text>
</g>
<!-- 80&#45;&gt;7 -->
<g id="edge81" class="edge">
<title>80&#45;&gt;7</title>
<path fill="none" stroke="black" d="M502.05,-267.62C511.44,-264.74 522.36,-261.39 532.5,-258.28"/>
<polygon fill="black" stroke="black" points="533.75,-261.55 542.29,-255.28 531.7,-254.86 533.75,-261.55"/>
</g>
<!-- 77 -->
<g id="node16" class="node">
<title>77</title>
<ellipse fill="none" stroke="black" cx="657" cy="-248" rx="27" ry="18"/>
<text text-anchor="middle" x="657" y="-244.3" font-family="Times,serif" font-size="14.00">77</text>
</g>
<!-- 7&#45;&gt;77 -->
<g id="edge8" class="edge">
<title>7&#45;&gt;77</title>
<path fill="none" stroke="black" d="M594.4,-248C602.39,-248 611.31,-248 619.82,-248"/>
<polygon fill="black" stroke="black" points="619.92,-251.5 629.92,-248 619.92,-244.5 619.92,-251.5"/>
</g>
<!-- 17 -->
<g id="node34" class="node">
<title>17</title>
<ellipse fill="none" stroke="black" cx="747" cy="-194" rx="27" ry="18"/>
<text text-anchor="middle" x="747" y="-190.3" font-family="Times,serif" font-size="14.00">17</text>
</g>
<!-- 77&#45;&gt;17 -->
<g id="edge78" class="edge">
<title>77&#45;&gt;17</title>
<path fill="none" stroke="black" d="M677.53,-236.02C689.38,-228.74 704.7,-219.34 717.84,-211.28"/>
<polygon fill="black" stroke="black" points="719.83,-214.16 726.52,-205.95 716.17,-208.2 719.83,-214.16"/>
</g>
<!-- 8 -->
<g id="node17" class="node">
<title>8</title>
<ellipse fill="none" stroke="black" cx="1107" cy="-126" rx="27" ry="18"/>
<text text-anchor="middle" x="1107" y="-122.3" font-family="Times,serif" font-size="14.00">8</text>
</g>
<!-- 36 -->
<g id="node18" class="node">
<title>36</title>
<ellipse fill="none" stroke="black" cx="1197" cy="-99" rx="27" ry="18"/>
<text text-anchor="middle" x="1197" y="-95.3" font-family="Times,serif" font-size="14.00">36</text>
</g>
<!-- 8&#45;&gt;36 -->
<g id="edge9" class="edge">
<title>8&#45;&gt;36</title>
<path fill="none" stroke="black" d="M1132.05,-118.62C1141.44,-115.74 1152.36,-112.39 1162.5,-109.28"/>
<polygon fill="black" stroke="black" points="1163.75,-112.55 1172.29,-106.28 1161.7,-105.86 1163.75,-112.55"/>
</g>
<!-- 60 -->
<g id="node59" class="node">
<title>60</title>
<ellipse fill="none" stroke="black" cx="1287" cy="-99" rx="27" ry="18"/>
<text text-anchor="middle" x="1287" y="-95.3" font-family="Times,serif" font-size="14.00">60</text>
</g>
<!-- 36&#45;&gt;60 -->
<g id="edge37" class="edge">
<title>36&#45;&gt;60</title>
<path fill="none" stroke="black" d="M1224.4,-99C1232.39,-99 1241.31,-99 1249.82,-99"/>
<polygon fill="black" stroke="black" points="1249.92,-102.5 1259.92,-99 1249.92,-95.5 1249.92,-102.5"/>
</g>
<!-- 9 -->
<g id="node19" class="node">
<title>9</title>
<ellipse fill="none" stroke="black" cx="1377" cy="-207" rx="27" ry="18"/>
<text text-anchor="middle" x="1377" y="-203.3" font-family="Times,serif" font-size="14.00">9</text>
</g>
<!-- 78 -->
<g id="node20" class="node">
<title>78</title>
<ellipse fill="none" stroke="black" cx="1467" cy="-153" rx="27" ry="18"/>
<text text-anchor="middle" x="1467" y="-149.3" font-family="Times,serif" font-size="14.00">78</text>
</g>
<!-- 9&#45;&gt;78 -->
<g id="edge10" class="edge">
<title>9&#45;&gt;78</title>
<path fill="none" stroke="black" d="M1397.53,-195.02C1409.38,-187.74 1424.7,-178.34 1437.84,-170.28"/>
<polygon fill="black" stroke="black" points="1439.83,-173.16 1446.52,-164.95 1436.17,-167.2 1439.83,-173.16"/>
</g>
<!-- 50 -->
<g id="node71" class="node">
<title>50</title>
<ellipse fill="none" stroke="black" cx="1557" cy="-153" rx="27" ry="18"/>
<text text-anchor="middle" x="1557" y="-149.3" font-family="Times,serif" font-size="14.00">50</text>
</g>
<!-- 78&#45;&gt;50 -->
<g id="edge79" class="edge">
<title>78&#45;&gt;50</title>
<path fill="none" stroke="black" d="M1494.4,-153C1502.39,-153 1511.31,-153 1519.82,-153"/>
<polygon fill="black" stroke="black" points="1519.92,-156.5 1529.92,-153 1519.92,-149.5 1519.92,-156.5"/>
</g>
<!-- 10 -->
<g id="node21" class="node">
<title>10</title>
<ellipse fill="none" stroke="black" cx="387" cy="-745" rx="27" ry="18"/>
<text text-anchor="middle" x="387" y="-741.3" font-family="Times,serif" font-size="14.00">10</text>
</g>
<!-- 48 -->
<g id="node22" class="node">
<title>48</title>
<ellipse fill="none" stroke="black" cx="477" cy="-691" rx="27" ry="18"/>
<text text-anchor="middle" x="477" y="-687.3" font-family="Times,serif" font-size="14.00">48</text>
</g>
<!-- 10&#45;&gt;48 -->
<g id="edge11" class="edge">
<title>10&#45;&gt;48</title>
<path fill="none" stroke="black" d="M407.53,-733.02C419.38,-725.74 434.7,-716.34 447.84,-708.28"/>
<polygon fill="black" stroke="black" points="449.83,-711.16 456.52,-702.95 446.17,-705.2 449.83,-711.16"/>
</g>
<!-- 15 -->
<g id="node31" class="node">
<title>15</title>
<ellipse fill="none" stroke="black" cx="567" cy="-645" rx="27" ry="18"/>
<text text-anchor="middle" x="567" y="-641.3" font-family="Times,serif" font-size="14.00">15</text>
</g>
<!-- 48&#45;&gt;15 -->
<g id="edge49" class="edge">
<title>48&#45;&gt;15</title>
<path fill="none" stroke="black" d="M498.85,-680.1C510.03,-674.26 524,-666.96 536.29,-660.53"/>
<polygon fill="black" stroke="black" points="538.05,-663.56 545.29,-655.82 534.81,-657.35 538.05,-663.56"/>
</g>
<!-- 11 -->
<g id="node23" class="node">
<title>11</title>
<ellipse fill="none" stroke="black" cx="927" cy="-194" rx="27" ry="18"/>
<text text-anchor="middle" x="927" y="-190.3" font-family="Times,serif" font-size="14.00">11</text>
</g>
<!-- 68 -->
<g id="node24" class="node">
<title>68</title>
<ellipse fill="none" stroke="black" cx="1017" cy="-126" rx="27" ry="18"/>
<text text-anchor="middle" x="1017" y="-122.3" font-family="Times,serif" font-size="14.00">68</text>
</g>
<!-- 11&#45;&gt;68 -->
<g id="edge12" class="edge">
<title>11&#45;&gt;68</title>
<path fill="none" stroke="black" d="M945.39,-180.57C958.28,-170.6 976.07,-156.86 990.56,-145.66"/>
<polygon fill="black" stroke="black" points="992.88,-148.29 998.65,-139.41 988.6,-142.75 992.88,-148.29"/>
</g>
<!-- 68&#45;&gt;8 -->
<g id="edge69" class="edge">
<title>68&#45;&gt;8</title>
<path fill="none" stroke="black" d="M1044.4,-126C1052.39,-126 1061.31,-126 1069.82,-126"/>
<polygon fill="black" stroke="black" points="1069.92,-129.5 1079.92,-126 1069.92,-122.5 1069.92,-129.5"/>
</g>
<!-- 12 -->
<g id="node25" class="node">
<title>12</title>
<ellipse fill="none" stroke="black" cx="747" cy="-302" rx="27" ry="18"/>
<text text-anchor="middle" x="747" y="-298.3" font-family="Times,serif" font-size="14.00">12</text>
</g>
<!-- 35 -->
<g id="node26" class="node">
<title>35</title>
<ellipse fill="none" stroke="black" cx="837" cy="-248" rx="27" ry="18"/>
<text text-anchor="middle" x="837" y="-244.3" font-family="Times,serif" font-size="14.00">35</text>
</g>
<!-- 12&#45;&gt;35 -->
<g id="edge13" class="edge">
<title>12&#45;&gt;35</title>
<path fill="none" stroke="black" d="M767.53,-290.02C779.38,-282.74 794.7,-273.34 807.84,-265.28"/>
<polygon fill="black" stroke="black" points="809.83,-268.16 816.52,-259.95 806.17,-262.2 809.83,-268.16"/>
</g>
<!-- 35&#45;&gt;11 -->
<g id="edge36" class="edge">
<title>35&#45;&gt;11</title>
<path fill="none" stroke="black" d="M857.53,-236.02C869.38,-228.74 884.7,-219.34 897.84,-211.28"/>
<polygon fill="black" stroke="black" points="899.83,-214.16 906.52,-205.95 896.17,-208.2 899.83,-214.16"/>
</g>
<!-- 44 -->
<g id="node28" class="node">
<title>44</title>
<ellipse fill="none" stroke="black" cx="297" cy="-739" rx="27" ry="18"/>
<text text-anchor="middle" x="297" y="-735.3" font-family="Times,serif" font-size="14.00">44</text>
</g>
<!-- 13&#45;&gt;44 -->
<g id="edge14" class="edge">
<title>13&#45;&gt;44</title>
<path fill="none" stroke="black" d="M233.93,-731.24C242.16,-732.27 251.42,-733.43 260.22,-734.53"/>
<polygon fill="black" stroke="black" points="259.9,-738.01 270.26,-735.78 260.77,-731.07 259.9,-738.01"/>
</g>
<!-- 44&#45;&gt;10 -->
<g id="edge45" class="edge">
<title>44&#45;&gt;10</title>
<path fill="none" stroke="black" d="M323.93,-740.77C332,-741.32 341.06,-741.94 349.7,-742.53"/>
<polygon fill="black" stroke="black" points="349.74,-746.04 359.95,-743.22 350.22,-739.05 349.74,-746.04"/>
</g>
<!-- 14&#45;&gt;31 -->
<g id="edge15" class="edge">
<title>14&#45;&gt;31</title>
<path fill="none" stroke="black" d="M412.05,-444.38C421.44,-447.26 432.36,-450.61 442.5,-453.72"/>
<polygon fill="black" stroke="black" points="441.7,-457.14 452.29,-456.72 443.75,-450.45 441.7,-457.14"/>
</g>
<!-- 64 -->
<g id="node54" class="node">
<title>64</title>
<ellipse fill="none" stroke="black" cx="567" cy="-464" rx="27" ry="18"/>
<text text-anchor="middle" x="567" y="-460.3" font-family="Times,serif" font-size="14.00">64</text>
</g>
<!-- 31&#45;&gt;64 -->
<g id="edge32" class="edge">
<title>31&#45;&gt;64</title>
<path fill="none" stroke="black" d="M504.4,-464C512.39,-464 521.31,-464 529.82,-464"/>
<polygon fill="black" stroke="black" points="529.92,-467.5 539.92,-464 529.92,-460.5 529.92,-467.5"/>
</g>
<!-- 15&#45;&gt;59 -->
<g id="edge16" class="edge">
<title>15&#45;&gt;59</title>
<path fill="none" stroke="black" d="M539.76,-645C505.04,-645 441.93,-645 388,-645 296,-645 296,-645 296,-645 245.94,-645 188.62,-654.06 152.86,-660.8"/>
<polygon fill="black" stroke="black" points="152.08,-657.39 142.93,-662.72 153.41,-664.26 152.08,-657.39"/>
</g>
<!-- 16 -->
<g id="node32" class="node">
<title>16</title>
<ellipse fill="none" stroke="black" cx="387" cy="-221" rx="27" ry="18"/>
<text text-anchor="middle" x="387" y="-217.3" font-family="Times,serif" font-size="14.00">16</text>
</g>
<!-- 76 -->
<g id="node33" class="node">
<title>76</title>
<ellipse fill="none" stroke="black" cx="477" cy="-221" rx="27" ry="18"/>
<text text-anchor="middle" x="477" y="-217.3" font-family="Times,serif" font-size="14.00">76</text>
</g>
<!-- 16&#45;&gt;76 -->
<g id="edge17" class="edge">
<title>16&#45;&gt;76</title>
<path fill="none" stroke="black" d="M414.4,-221C422.39,-221 431.31,-221 439.82,-221"/>
<polygon fill="black" stroke="black" points="439.92,-224.5 449.92,-221 439.92,-217.5 439.92,-224.5"/>
</g>
<!-- 76&#45;&gt;7 -->
<g id="edge77" class="edge">
<title>76&#45;&gt;7</title>
<path fill="none" stroke="black" d="M502.05,-228.38C511.44,-231.26 522.36,-234.61 532.5,-237.72"/>
<polygon fill="black" stroke="black" points="531.7,-241.14 542.29,-240.72 533.75,-234.45 531.7,-241.14"/>
</g>
<!-- 40 -->
<g id="node35" class="node">
<title>40</title>
<ellipse fill="none" stroke="black" cx="837" cy="-194" rx="27" ry="18"/>
<text text-anchor="middle" x="837" y="-190.3" font-family="Times,serif" font-size="14.00">40</text>
</g>
<!-- 17&#45;&gt;40 -->
<g id="edge18" class="edge">
<title>17&#45;&gt;40</title>
<path fill="none" stroke="black" d="M774.4,-194C782.39,-194 791.31,-194 799.82,-194"/>
<polygon fill="black" stroke="black" points="799.92,-197.5 809.92,-194 799.92,-190.5 799.92,-197.5"/>
</g>
<!-- 40&#45;&gt;11 -->
<g id="edge41" class="edge">
<title>40&#45;&gt;11</title>
<path fill="none" stroke="black" d="M864.4,-194C872.39,-194 881.31,-194 889.82,-194"/>
<polygon fill="black" stroke="black" points="889.92,-197.5 899.92,-194 889.92,-190.5 889.92,-197.5"/>
</g>
<!-- 18 -->
<g id="node36" class="node">
<title>18</title>
<ellipse fill="none" stroke="black" cx="387" cy="-691" rx="27" ry="18"/>
<text text-anchor="middle" x="387" y="-687.3" font-family="Times,serif" font-size="14.00">18</text>
</g>
<!-- 18&#45;&gt;48 -->
<g id="edge19" class="edge">
<title>18&#45;&gt;48</title>
<path fill="none" stroke="black" d="M414.4,-691C422.39,-691 431.31,-691 439.82,-691"/>
<polygon fill="black" stroke="black" points="439.92,-694.5 449.92,-691 439.92,-687.5 439.92,-694.5"/>
</g>
<!-- 19 -->
<g id="node37" class="node">
<title>19</title>
<ellipse fill="none" stroke="black" cx="1647" cy="-126" rx="27" ry="18"/>
<text text-anchor="middle" x="1647" y="-122.3" font-family="Times,serif" font-size="14.00">19</text>
</g>
<!-- 30 -->
<g id="node38" class="node">
<title>30</title>
<ellipse fill="none" stroke="black" cx="1737" cy="-126" rx="27" ry="18"/>
<text text-anchor="middle" x="1737" y="-122.3" font-family="Times,serif" font-size="14.00">30</text>
</g>
<!-- 19&#45;&gt;30 -->
<g id="edge20" class="edge">
<title>19&#45;&gt;30</title>
<path fill="none" stroke="black" d="M1674.4,-126C1682.39,-126 1691.31,-126 1699.82,-126"/>
<polygon fill="black" stroke="black" points="1699.92,-129.5 1709.92,-126 1699.92,-122.5 1699.92,-129.5"/>
</g>
<!-- 79 -->
<g id="node53" class="node">
<title>79</title>
<ellipse fill="none" stroke="black" cx="1827" cy="-126" rx="27" ry="18"/>
<text text-anchor="middle" x="1827" y="-122.3" font-family="Times,serif" font-size="14.00">79</text>
</g>
<!-- 30&#45;&gt;79 -->
<g id="edge31" class="edge">
<title>30&#45;&gt;79</title>
<path fill="none" stroke="black" d="M1764.4,-126C1772.39,-126 1781.31,-126 1789.82,-126"/>
<polygon fill="black" stroke="black" points="1789.92,-129.5 1799.92,-126 1789.92,-122.5 1789.92,-129.5"/>
</g>
<!-- 20 -->
<g id="node39" class="node">
<title>20</title>
<ellipse fill="none" stroke="black" cx="1107" cy="-72" rx="27" ry="18"/>
<text text-anchor="middle" x="1107" y="-68.3" font-family="Times,serif" font-size="14.00">20</text>
</g>
<!-- 20&#45;&gt;36 -->
<g id="edge21" class="edge">
<title>20&#45;&gt;36</title>
<path fill="none" stroke="black" d="M1132.05,-79.38C1141.44,-82.26 1152.36,-85.61 1162.5,-88.72"/>
<polygon fill="black" stroke="black" points="1161.7,-92.14 1172.29,-91.72 1163.75,-85.45 1161.7,-92.14"/>
</g>
<!-- 21 -->
<g id="node40" class="node">
<title>21</title>
<ellipse fill="none" stroke="black" cx="117" cy="-329" rx="27" ry="18"/>
<text text-anchor="middle" x="117" y="-325.3" font-family="Times,serif" font-size="14.00">21</text>
</g>
<!-- 58 -->
<g id="node41" class="node">
<title>58</title>
<ellipse fill="none" stroke="black" cx="207" cy="-329" rx="27" ry="18"/>
<text text-anchor="middle" x="207" y="-325.3" font-family="Times,serif" font-size="14.00">58</text>
</g>
<!-- 21&#45;&gt;58 -->
<g id="edge22" class="edge">
<title>21&#45;&gt;58</title>
<path fill="none" stroke="black" d="M144.4,-329C152.39,-329 161.31,-329 169.82,-329"/>
<polygon fill="black" stroke="black" points="169.92,-332.5 179.92,-329 169.92,-325.5 169.92,-332.5"/>
</g>
<!-- 58&#45;&gt;1 -->
<g id="edge59" class="edge">
<title>58&#45;&gt;1</title>
<path fill="none" stroke="black" d="M234.4,-329C242.39,-329 251.31,-329 259.82,-329"/>
<polygon fill="black" stroke="black" points="259.92,-332.5 269.92,-329 259.92,-325.5 259.92,-332.5"/>
</g>
<!-- 22 -->
<g id="node42" class="node">
<title>22</title>
<ellipse fill="none" stroke="black" cx="1737" cy="-180" rx="27" ry="18"/>
<text text-anchor="middle" x="1737" y="-176.3" font-family="Times,serif" font-size="14.00">22</text>
</g>
<!-- 67 -->
<g id="node43" class="node">
<title>67</title>
<ellipse fill="none" stroke="black" cx="1827" cy="-180" rx="27" ry="18"/>
<text text-anchor="middle" x="1827" y="-176.3" font-family="Times,serif" font-size="14.00">67</text>
</g>
<!-- 22&#45;&gt;67 -->
<g id="edge23" class="edge">
<title>22&#45;&gt;67</title>
<path fill="none" stroke="black" d="M1764.4,-180C1772.39,-180 1781.31,-180 1789.82,-180"/>
<polygon fill="black" stroke="black" points="1789.92,-183.5 1799.92,-180 1789.92,-176.5 1789.92,-183.5"/>
</g>
<!-- 67&#45;&gt;0 -->
<g id="edge68" class="edge">
<title>67&#45;&gt;0</title>
<path fill="none" stroke="black" d="M1852.05,-172.62C1861.44,-169.74 1872.36,-166.39 1882.5,-163.28"/>
<polygon fill="black" stroke="black" points="1883.75,-166.55 1892.29,-160.28 1881.7,-159.86 1883.75,-166.55"/>
</g>
<!-- 23 -->
<g id="node44" class="node">
<title>23</title>
<ellipse fill="none" stroke="black" cx="207" cy="-275" rx="27" ry="18"/>
<text text-anchor="middle" x="207" y="-271.3" font-family="Times,serif" font-size="14.00">23</text>
</g>
<!-- 29 -->
<g id="node45" class="node">
<title>29</title>
<ellipse fill="none" stroke="black" cx="297" cy="-221" rx="27" ry="18"/>
<text text-anchor="middle" x="297" y="-217.3" font-family="Times,serif" font-size="14.00">29</text>
</g>
<!-- 23&#45;&gt;29 -->
<g id="edge24" class="edge">
<title>23&#45;&gt;29</title>
<path fill="none" stroke="black" d="M227.53,-263.02C239.38,-255.74 254.7,-246.34 267.84,-238.28"/>
<polygon fill="black" stroke="black" points="269.83,-241.16 276.52,-232.95 266.17,-235.2 269.83,-241.16"/>
</g>
<!-- 29&#45;&gt;16 -->
<g id="edge30" class="edge">
<title>29&#45;&gt;16</title>
<path fill="none" stroke="black" d="M324.4,-221C332.39,-221 341.31,-221 349.82,-221"/>
<polygon fill="black" stroke="black" points="349.92,-224.5 359.92,-221 349.92,-217.5 349.92,-224.5"/>
</g>
<!-- 46 -->
<g id="node47" class="node">
<title>46</title>
<ellipse fill="none" stroke="black" cx="837" cy="-126" rx="27" ry="18"/>
<text text-anchor="middle" x="837" y="-122.3" font-family="Times,serif" font-size="14.00">46</text>
</g>
<!-- 24&#45;&gt;46 -->
<g id="edge25" class="edge">
<title>24&#45;&gt;46</title>
<path fill="none" stroke="black" d="M772.05,-106.38C781.44,-109.26 792.36,-112.61 802.5,-115.72"/>
<polygon fill="black" stroke="black" points="801.7,-119.14 812.29,-118.72 803.75,-112.45 801.7,-119.14"/>
</g>
<!-- 57 -->
<g id="node69" class="node">
<title>57</title>
<ellipse fill="none" stroke="black" cx="927" cy="-126" rx="27" ry="18"/>
<text text-anchor="middle" x="927" y="-122.3" font-family="Times,serif" font-size="14.00">57</text>
</g>
<!-- 46&#45;&gt;57 -->
<g id="edge47" class="edge">
<title>46&#45;&gt;57</title>
<path fill="none" stroke="black" d="M864.4,-126C872.39,-126 881.31,-126 889.82,-126"/>
<polygon fill="black" stroke="black" points="889.92,-129.5 899.92,-126 889.92,-122.5 889.92,-129.5"/>
</g>
<!-- 25 -->
<g id="node48" class="node">
<title>25</title>
<ellipse fill="none" stroke="black" cx="837" cy="-72" rx="27" ry="18"/>
<text text-anchor="middle" x="837" y="-68.3" font-family="Times,serif" font-size="14.00">25</text>
</g>
<!-- 54 -->
<g id="node49" class="node">
<title>54</title>
<ellipse fill="none" stroke="black" cx="927" cy="-72" rx="27" ry="18"/>
<text text-anchor="middle" x="927" y="-68.3" font-family="Times,serif" font-size="14.00">54</text>
</g>
<!-- 25&#45;&gt;54 -->
<g id="edge26" class="edge">
<title>25&#45;&gt;54</title>
<path fill="none" stroke="black" d="M864.4,-72C872.39,-72 881.31,-72 889.82,-72"/>
<polygon fill="black" stroke="black" points="889.92,-75.5 899.92,-72 889.92,-68.5 889.92,-75.5"/>
</g>
<!-- 38 -->
<g id="node61" class="node">
<title>38</title>
<ellipse fill="none" stroke="black" cx="1017" cy="-72" rx="27" ry="18"/>
<text text-anchor="middle" x="1017" y="-68.3" font-family="Times,serif" font-size="14.00">38</text>
</g>
<!-- 54&#45;&gt;38 -->
<g id="edge55" class="edge">
<title>54&#45;&gt;38</title>
<path fill="none" stroke="black" d="M954.4,-72C962.39,-72 971.31,-72 979.82,-72"/>
<polygon fill="black" stroke="black" points="979.92,-75.5 989.92,-72 979.92,-68.5 979.92,-75.5"/>
</g>
<!-- 26 -->
<g id="node50" class="node">
<title>26</title>
<ellipse fill="none" stroke="black" cx="207" cy="-221" rx="27" ry="18"/>
<text text-anchor="middle" x="207" y="-217.3" font-family="Times,serif" font-size="14.00">26</text>
</g>
<!-- 26&#45;&gt;29 -->
<g id="edge27" class="edge">
<title>26&#45;&gt;29</title>
<path fill="none" stroke="black" d="M234.4,-221C242.39,-221 251.31,-221 259.82,-221"/>
<polygon fill="black" stroke="black" points="259.92,-224.5 269.92,-221 259.92,-217.5 259.92,-224.5"/>
</g>
<!-- 27 -->
<g id="node51" class="node">
<title>27</title>
<ellipse fill="none" stroke="black" cx="747" cy="-248" rx="27" ry="18"/>
<text text-anchor="middle" x="747" y="-244.3" font-family="Times,serif" font-size="14.00">27</text>
</g>
<!-- 27&#45;&gt;35 -->
<g id="edge28" class="edge">
<title>27&#45;&gt;35</title>
<path fill="none" stroke="black" d="M774.4,-248C782.39,-248 791.31,-248 799.82,-248"/>
<polygon fill="black" stroke="black" points="799.92,-251.5 809.92,-248 799.92,-244.5 799.92,-251.5"/>
</g>
<!-- 28 -->
<g id="node52" class="node">
<title>28</title>
<ellipse fill="none" stroke="black" cx="1377" cy="-153" rx="27" ry="18"/>
<text text-anchor="middle" x="1377" y="-149.3" font-family="Times,serif" font-size="14.00">28</text>
</g>
<!-- 28&#45;&gt;78 -->
<g id="edge29" class="edge">
<title>28&#45;&gt;78</title>
<path fill="none" stroke="black" d="M1404.4,-153C1412.39,-153 1421.31,-153 1429.82,-153"/>
<polygon fill="black" stroke="black" points="1429.92,-156.5 1439.92,-153 1429.92,-149.5 1429.92,-156.5"/>
</g>
<!-- 79&#45;&gt;0 -->
<g id="edge80" class="edge">
<title>79&#45;&gt;0</title>
<path fill="none" stroke="black" d="M1852.05,-133.38C1861.44,-136.26 1872.36,-139.61 1882.5,-142.72"/>
<polygon fill="black" stroke="black" points="1881.7,-146.14 1892.29,-145.72 1883.75,-139.45 1881.7,-146.14"/>
</g>
<!-- 61 -->
<g id="node76" class="node">
<title>61</title>
<ellipse fill="none" stroke="black" cx="657" cy="-464" rx="27" ry="18"/>
<text text-anchor="middle" x="657" y="-460.3" font-family="Times,serif" font-size="14.00">61</text>
</g>
<!-- 64&#45;&gt;61 -->
<g id="edge65" class="edge">
<title>64&#45;&gt;61</title>
<path fill="none" stroke="black" d="M592.51,-457.88C601.4,-457.27 611.62,-457.1 621.22,-457.38"/>
<polygon fill="black" stroke="black" points="621.16,-460.88 631.31,-457.86 621.49,-453.89 621.16,-460.88"/>
</g>
<!-- 32 -->
<g id="node55" class="node">
<title>32</title>
<ellipse fill="none" stroke="black" cx="117" cy="-437" rx="27" ry="18"/>
<text text-anchor="middle" x="117" y="-433.3" font-family="Times,serif" font-size="14.00">32</text>
</g>
<!-- 70 -->
<g id="node56" class="node">
<title>70</title>
<ellipse fill="none" stroke="black" cx="207" cy="-437" rx="27" ry="18"/>
<text text-anchor="middle" x="207" y="-433.3" font-family="Times,serif" font-size="14.00">70</text>
</g>
<!-- 32&#45;&gt;70 -->
<g id="edge33" class="edge">
<title>32&#45;&gt;70</title>
<path fill="none" stroke="black" d="M144.4,-437C152.39,-437 161.31,-437 169.82,-437"/>
<polygon fill="black" stroke="black" points="169.92,-440.5 179.92,-437 169.92,-433.5 169.92,-440.5"/>
</g>
<!-- 55 -->
<g id="node74" class="node">
<title>55</title>
<ellipse fill="none" stroke="black" cx="297" cy="-437" rx="27" ry="18"/>
<text text-anchor="middle" x="297" y="-433.3" font-family="Times,serif" font-size="14.00">55</text>
</g>
<!-- 70&#45;&gt;55 -->
<g id="edge71" class="edge">
<title>70&#45;&gt;55</title>
<path fill="none" stroke="black" d="M234.4,-437C242.39,-437 251.31,-437 259.82,-437"/>
<polygon fill="black" stroke="black" points="259.92,-440.5 269.92,-437 259.92,-433.5 259.92,-440.5"/>
</g>
<!-- 33 -->
<g id="node57" class="node">
<title>33</title>
<ellipse fill="none" stroke="black" cx="477" cy="-599" rx="27" ry="18"/>
<text text-anchor="middle" x="477" y="-595.3" font-family="Times,serif" font-size="14.00">33</text>
</g>
<!-- 33&#45;&gt;15 -->
<g id="edge34" class="edge">
<title>33&#45;&gt;15</title>
<path fill="none" stroke="black" d="M498.85,-609.9C510.03,-615.74 524,-623.04 536.29,-629.47"/>
<polygon fill="black" stroke="black" points="534.81,-632.65 545.29,-634.18 538.05,-626.44 534.81,-632.65"/>
</g>
<!-- 34 -->
<g id="node58" class="node">
<title>34</title>
<ellipse fill="none" stroke="black" cx="657" cy="-86" rx="27" ry="18"/>
<text text-anchor="middle" x="657" y="-82.3" font-family="Times,serif" font-size="14.00">34</text>
</g>
<!-- 34&#45;&gt;24 -->
<g id="edge35" class="edge">
<title>34&#45;&gt;24</title>
<path fill="none" stroke="black" d="M683.45,-89.76C691.86,-91 701.38,-92.41 710.4,-93.74"/>
<polygon fill="black" stroke="black" points="709.89,-97.2 720.3,-95.2 710.92,-90.28 709.89,-97.2"/>
</g>
<!-- 37 -->
<g id="node60" class="node">
<title>37</title>
<ellipse fill="none" stroke="black" cx="1377" cy="-99" rx="27" ry="18"/>
<text text-anchor="middle" x="1377" y="-95.3" font-family="Times,serif" font-size="14.00">37</text>
</g>
<!-- 60&#45;&gt;37 -->
<g id="edge61" class="edge">
<title>60&#45;&gt;37</title>
<path fill="none" stroke="black" d="M1314.4,-99C1322.39,-99 1331.31,-99 1339.82,-99"/>
<polygon fill="black" stroke="black" points="1339.92,-102.5 1349.92,-99 1339.92,-95.5 1339.92,-102.5"/>
</g>
<!-- 37&#45;&gt;78 -->
<g id="edge38" class="edge">
<title>37&#45;&gt;78</title>
<path fill="none" stroke="black" d="M1397.53,-110.98C1409.38,-118.26 1424.7,-127.66 1437.84,-135.72"/>
<polygon fill="black" stroke="black" points="1436.17,-138.8 1446.52,-141.05 1439.83,-132.84 1436.17,-138.8"/>
</g>
<!-- 38&#45;&gt;20 -->
<g id="edge39" class="edge">
<title>38&#45;&gt;20</title>
<path fill="none" stroke="black" d="M1044.4,-72C1052.39,-72 1061.31,-72 1069.82,-72"/>
<polygon fill="black" stroke="black" points="1069.92,-75.5 1079.92,-72 1069.92,-68.5 1069.92,-75.5"/>
</g>
<!-- 39 -->
<g id="node62" class="node">
<title>39</title>
<ellipse fill="none" stroke="black" cx="387" cy="-383" rx="27" ry="18"/>
<text text-anchor="middle" x="387" y="-379.3" font-family="Times,serif" font-size="14.00">39</text>
</g>
<!-- 39&#45;&gt;51 -->
<g id="edge40" class="edge">
<title>39&#45;&gt;51</title>
<path fill="none" stroke="black" d="M407.53,-371.02C419.38,-363.74 434.7,-354.34 447.84,-346.28"/>
<polygon fill="black" stroke="black" points="449.83,-349.16 456.52,-340.95 446.17,-343.2 449.83,-349.16"/>
</g>
<!-- 51&#45;&gt;75 -->
<g id="edge52" class="edge">
<title>51&#45;&gt;75</title>
<path fill="none" stroke="black" d="M451.31,-335.14C442.41,-335.74 432.18,-335.9 422.59,-335.61"/>
<polygon fill="black" stroke="black" points="422.67,-332.11 412.51,-335.12 422.33,-339.1 422.67,-332.11"/>
</g>
<!-- 41 -->
<g id="node64" class="node">
<title>41</title>
<ellipse fill="none" stroke="black" cx="657" cy="-194" rx="27" ry="18"/>
<text text-anchor="middle" x="657" y="-190.3" font-family="Times,serif" font-size="14.00">41</text>
</g>
<!-- 41&#45;&gt;17 -->
<g id="edge42" class="edge">
<title>41&#45;&gt;17</title>
<path fill="none" stroke="black" d="M684.4,-194C692.39,-194 701.31,-194 709.82,-194"/>
<polygon fill="black" stroke="black" points="709.92,-197.5 719.92,-194 709.92,-190.5 709.92,-197.5"/>
</g>
<!-- 42 -->
<g id="node65" class="node">
<title>42</title>
<ellipse fill="none" stroke="black" cx="27" cy="-641" rx="27" ry="18"/>
<text text-anchor="middle" x="27" y="-637.3" font-family="Times,serif" font-size="14.00">42</text>
</g>
<!-- 42&#45;&gt;59 -->
<g id="edge43" class="edge">
<title>42&#45;&gt;59</title>
<path fill="none" stroke="black" d="M52.05,-648.38C61.44,-651.26 72.36,-654.61 82.5,-657.72"/>
<polygon fill="black" stroke="black" points="81.7,-661.14 92.29,-660.72 83.75,-654.45 81.7,-661.14"/>
</g>
<!-- 43 -->
<g id="node66" class="node">
<title>43</title>
<ellipse fill="none" stroke="black" cx="297" cy="-491" rx="27" ry="18"/>
<text text-anchor="middle" x="297" y="-487.3" font-family="Times,serif" font-size="14.00">43</text>
</g>
<!-- 43&#45;&gt;73 -->
<g id="edge44" class="edge">
<title>43&#45;&gt;73</title>
<path fill="none" stroke="black" d="M324.4,-491C332.39,-491 341.31,-491 349.82,-491"/>
<polygon fill="black" stroke="black" points="349.92,-494.5 359.92,-491 349.92,-487.5 349.92,-494.5"/>
</g>
<!-- 45 -->
<g id="node67" class="node">
<title>45</title>
<ellipse fill="none" stroke="black" cx="27" cy="-275" rx="27" ry="18"/>
<text text-anchor="middle" x="27" y="-271.3" font-family="Times,serif" font-size="14.00">45</text>
</g>
<!-- 49 -->
<g id="node68" class="node">
<title>49</title>
<ellipse fill="none" stroke="black" cx="117" cy="-221" rx="27" ry="18"/>
<text text-anchor="middle" x="117" y="-217.3" font-family="Times,serif" font-size="14.00">49</text>
</g>
<!-- 45&#45;&gt;49 -->
<g id="edge46" class="edge">
<title>45&#45;&gt;49</title>
<path fill="none" stroke="black" d="M47.53,-263.02C59.38,-255.74 74.7,-246.34 87.84,-238.28"/>
<polygon fill="black" stroke="black" points="89.83,-241.16 96.52,-232.95 86.17,-235.2 89.83,-241.16"/>
</g>
<!-- 49&#45;&gt;26 -->
<g id="edge50" class="edge">
<title>49&#45;&gt;26</title>
<path fill="none" stroke="black" d="M144.4,-221C152.39,-221 161.31,-221 169.82,-221"/>
<polygon fill="black" stroke="black" points="169.92,-224.5 179.92,-221 169.92,-217.5 169.92,-224.5"/>
</g>
<!-- 57&#45;&gt;68 -->
<g id="edge58" class="edge">
<title>57&#45;&gt;68</title>
<path fill="none" stroke="black" d="M954.4,-126C962.39,-126 971.31,-126 979.82,-126"/>
<polygon fill="black" stroke="black" points="979.92,-129.5 989.92,-126 979.92,-122.5 979.92,-129.5"/>
</g>
<!-- 47 -->
<g id="node70" class="node">
<title>47</title>
<ellipse fill="none" stroke="black" cx="1287" cy="-207" rx="27" ry="18"/>
<text text-anchor="middle" x="1287" y="-203.3" font-family="Times,serif" font-size="14.00">47</text>
</g>
<!-- 47&#45;&gt;9 -->
<g id="edge48" class="edge">
<title>47&#45;&gt;9</title>
<path fill="none" stroke="black" d="M1314.4,-207C1322.39,-207 1331.31,-207 1339.82,-207"/>
<polygon fill="black" stroke="black" points="1339.92,-210.5 1349.92,-207 1339.92,-203.5 1339.92,-210.5"/>
</g>
<!-- 50&#45;&gt;19 -->
<g id="edge51" class="edge">
<title>50&#45;&gt;19</title>
<path fill="none" stroke="black" d="M1582.05,-145.62C1591.44,-142.74 1602.36,-139.39 1612.5,-136.28"/>
<polygon fill="black" stroke="black" points="1613.75,-139.55 1622.29,-133.28 1611.7,-132.86 1613.75,-139.55"/>
</g>
<!-- 52 -->
<g id="node72" class="node">
<title>52</title>
<ellipse fill="none" stroke="black" cx="117" cy="-383" rx="27" ry="18"/>
<text text-anchor="middle" x="117" y="-379.3" font-family="Times,serif" font-size="14.00">52</text>
</g>
<!-- 52&#45;&gt;2 -->
<g id="edge53" class="edge">
<title>52&#45;&gt;2</title>
<path fill="none" stroke="black" d="M144.4,-383C152.39,-383 161.31,-383 169.82,-383"/>
<polygon fill="black" stroke="black" points="169.92,-386.5 179.92,-383 169.92,-379.5 169.92,-386.5"/>
</g>
<!-- 53 -->
<g id="node73" class="node">
<title>53</title>
<ellipse fill="none" stroke="black" cx="117" cy="-275" rx="27" ry="18"/>
<text text-anchor="middle" x="117" y="-271.3" font-family="Times,serif" font-size="14.00">53</text>
</g>
<!-- 53&#45;&gt;23 -->
<g id="edge54" class="edge">
<title>53&#45;&gt;23</title>
<path fill="none" stroke="black" d="M144.4,-275C152.39,-275 161.31,-275 169.82,-275"/>
<polygon fill="black" stroke="black" points="169.92,-278.5 179.92,-275 169.92,-271.5 169.92,-278.5"/>
</g>
<!-- 55&#45;&gt;14 -->
<g id="edge56" class="edge">
<title>55&#45;&gt;14</title>
<path fill="none" stroke="black" d="M324.4,-437C332.39,-437 341.31,-437 349.82,-437"/>
<polygon fill="black" stroke="black" points="349.92,-440.5 359.92,-437 349.92,-433.5 349.92,-440.5"/>
</g>
<!-- 56 -->
<g id="node75" class="node">
<title>56</title>
<ellipse fill="none" stroke="black" cx="657" cy="-32" rx="27" ry="18"/>
<text text-anchor="middle" x="657" y="-28.3" font-family="Times,serif" font-size="14.00">56</text>
</g>
<!-- 56&#45;&gt;24 -->
<g id="edge57" class="edge">
<title>56&#45;&gt;24</title>
<path fill="none" stroke="black" d="M675.39,-45.24C688.28,-55.06 706.07,-68.6 720.56,-79.63"/>
<polygon fill="black" stroke="black" points="718.57,-82.52 728.65,-85.79 722.81,-76.95 718.57,-82.52"/>
</g>
<!-- 61&#45;&gt;64 -->
<g id="edge62" class="edge">
<title>61&#45;&gt;64</title>
<path fill="none" stroke="black" d="M631.31,-470.14C622.41,-470.74 612.18,-470.9 602.59,-470.61"/>
<polygon fill="black" stroke="black" points="602.67,-467.11 592.51,-470.12 602.33,-474.1 602.67,-467.11"/>
</g>
<!-- 62 -->
<g id="node77" class="node">
<title>62</title>
<ellipse fill="none" stroke="black" cx="117" cy="-728" rx="27" ry="18"/>
<text text-anchor="middle" x="117" y="-724.3" font-family="Times,serif" font-size="14.00">62</text>
</g>
<!-- 62&#45;&gt;13 -->
<g id="edge63" class="edge">
<title>62&#45;&gt;13</title>
<path fill="none" stroke="black" d="M144.4,-728C152.39,-728 161.31,-728 169.82,-728"/>
<polygon fill="black" stroke="black" points="169.92,-731.5 179.92,-728 169.92,-724.5 169.92,-731.5"/>
</g>
<!-- 63 -->
<g id="node78" class="node">
<title>63</title>
<ellipse fill="none" stroke="black" cx="1557" cy="-99" rx="27" ry="18"/>
<text text-anchor="middle" x="1557" y="-95.3" font-family="Times,serif" font-size="14.00">63</text>
</g>
<!-- 63&#45;&gt;19 -->
<g id="edge64" class="edge">
<title>63&#45;&gt;19</title>
<path fill="none" stroke="black" d="M1582.05,-106.38C1591.44,-109.26 1602.36,-112.61 1612.5,-115.72"/>
<polygon fill="black" stroke="black" points="1611.7,-119.14 1622.29,-118.72 1613.75,-112.45 1611.7,-119.14"/>
</g>
<!-- 66 -->
<g id="node79" class="node">
<title>66</title>
<ellipse fill="none" stroke="black" cx="387" cy="-599" rx="27" ry="18"/>
<text text-anchor="middle" x="387" y="-595.3" font-family="Times,serif" font-size="14.00">66</text>
</g>
<!-- 66&#45;&gt;33 -->
<g id="edge67" class="edge">
<title>66&#45;&gt;33</title>
<path fill="none" stroke="black" d="M414.4,-599C422.39,-599 431.31,-599 439.82,-599"/>
<polygon fill="black" stroke="black" points="439.92,-602.5 449.92,-599 439.92,-595.5 439.92,-602.5"/>
</g>
<!-- 69 -->
<g id="node80" class="node">
<title>69</title>
<ellipse fill="none" stroke="black" cx="27" cy="-329" rx="27" ry="18"/>
<text text-anchor="middle" x="27" y="-325.3" font-family="Times,serif" font-size="14.00">69</text>
</g>
<!-- 69&#45;&gt;21 -->
<g id="edge70" class="edge">
<title>69&#45;&gt;21</title>
<path fill="none" stroke="black" d="M54.4,-329C62.39,-329 71.31,-329 79.82,-329"/>
<polygon fill="black" stroke="black" points="79.92,-332.5 89.92,-329 79.92,-325.5 79.92,-332.5"/>
</g>
<!-- 72 -->
<g id="node81" class="node">
<title>72</title>
<ellipse fill="none" stroke="black" cx="1017" cy="-18" rx="27" ry="18"/>
<text text-anchor="middle" x="1017" y="-14.3" font-family="Times,serif" font-size="14.00">72</text>
</g>
<!-- 72&#45;&gt;20 -->
<g id="edge73" class="edge">
<title>72&#45;&gt;20</title>
<path fill="none" stroke="black" d="M1037.53,-29.98C1049.38,-37.26 1064.7,-46.66 1077.84,-54.72"/>
<polygon fill="black" stroke="black" points="1076.17,-57.8 1086.52,-60.05 1079.83,-51.84 1076.17,-57.8"/>
</g>
<!-- 74 -->
<g id="node82" class="node">
<title>74</title>
<ellipse fill="none" stroke="black" cx="387" cy="-545" rx="27" ry="18"/>
<text text-anchor="middle" x="387" y="-541.3" font-family="Times,serif" font-size="14.00">74</text>
</g>
<!-- 74&#45;&gt;33 -->
<g id="edge75" class="edge">
<title>74&#45;&gt;33</title>
<path fill="none" stroke="black" d="M407.53,-556.98C419.38,-564.26 434.7,-573.66 447.84,-581.72"/>
<polygon fill="black" stroke="black" points="446.17,-584.8 456.52,-587.05 449.83,-578.84 446.17,-584.8"/>
</g>
<!-- 81 -->
<g id="node83" class="node">
<title>81</title>
<ellipse fill="none" stroke="black" cx="27" cy="-437" rx="27" ry="18"/>
<text text-anchor="middle" x="27" y="-433.3" font-family="Times,serif" font-size="14.00">81</text>
</g>
<!-- 81&#45;&gt;32 -->
<g id="edge82" class="edge">
<title>81&#45;&gt;32</title>
<path fill="none" stroke="black" d="M54.4,-437C62.39,-437 71.31,-437 79.82,-437"/>
<polygon fill="black" stroke="black" points="79.92,-440.5 89.92,-437 79.92,-433.5 79.92,-440.5"/>
</g>
<!-- 82 -->
<g id="node84" class="node">
<title>82</title>
<ellipse fill="none" stroke="black" cx="27" cy="-221" rx="27" ry="18"/>
<text text-anchor="middle" x="27" y="-217.3" font-family="Times,serif" font-size="14.00">82</text>
</g>
<!-- 82&#45;&gt;49 -->
<g id="edge83" class="edge">
<title>82&#45;&gt;49</title>
<path fill="none" stroke="black" d="M54.4,-221C62.39,-221 71.31,-221 79.82,-221"/>
<polygon fill="black" stroke="black" points="79.92,-224.5 89.92,-221 79.92,-217.5 79.92,-224.5"/>
</g>
</g>
</svg>
