<?xml version="1.0" encoding="UTF-8" standalone="no"?>
<!DOCTYPE svg PUBLIC "-//W3C//DTD SVG 1.1//EN"
 "http://www.w3.org/Graphics/SVG/1.1/DTD/svg11.dtd">
<!-- Generated by graphviz version 2.42.3 (0)
 -->
<!-- Title: %3 Pages: 1 -->
<svg width="1105pt" height="1052pt"
 viewBox="0.00 0.00 1105.00 1052.00" xmlns="http://www.w3.org/2000/svg" xmlns:xlink="http://www.w3.org/1999/xlink">
<g id="graph0" class="graph" transform="scale(1 1) rotate(0) translate(4 1048)">
<title>%3</title>
<polygon fill="white" stroke="transparent" points="-4,4 -4,-1048 1101,-1048 1101,4 -4,4"/>
<!-- 0 -->
<g id="node1" class="node">
<title>0</title>
<ellipse fill="none" stroke="black" cx="55" cy="-1026" rx="27" ry="18"/>
<text text-anchor="middle" x="55" y="-1022.3" font-family="Times,serif" font-size="14.00">0</text>
</g>
<!-- 64 -->
<g id="node2" class="node">
<title>64</title>
<ellipse fill="none" stroke="black" cx="27" cy="-954" rx="27" ry="18"/>
<text text-anchor="middle" x="27" y="-950.3" font-family="Times,serif" font-size="14.00">64</text>
</g>
<!-- 0&#45;&gt;64 -->
<g id="edge1" class="edge">
<title>0&#45;&gt;64</title>
<path fill="none" stroke="black" d="M48.36,-1008.41C45.09,-1000.22 41.06,-990.14 37.38,-980.95"/>
<polygon fill="black" stroke="black" points="40.55,-979.45 33.59,-971.47 34.05,-982.05 40.55,-979.45"/>
</g>
<!-- 83 -->
<g id="node80" class="node">
<title>83</title>
<ellipse fill="none" stroke="black" cx="46" cy="-882" rx="27" ry="18"/>
<text text-anchor="middle" x="46" y="-878.3" font-family="Times,serif" font-size="14.00">83</text>
</g>
<!-- 64&#45;&gt;83 -->
<g id="edge65" class="edge">
<title>64&#45;&gt;83</title>
<path fill="none" stroke="black" d="M31.6,-936.05C33.75,-928.14 36.35,-918.54 38.76,-909.69"/>
<polygon fill="black" stroke="black" points="42.2,-910.36 41.44,-899.79 35.45,-908.52 42.2,-910.36"/>
</g>
<!-- 1 -->
<g id="node3" class="node">
<title>1</title>
<ellipse fill="none" stroke="black" cx="165" cy="-1026" rx="27" ry="18"/>
<text text-anchor="middle" x="165" y="-1022.3" font-family="Times,serif" font-size="14.00">1</text>
</g>
<!-- 54 -->
<g id="node4" class="node">
<title>54</title>
<ellipse fill="none" stroke="black" cx="137" cy="-954" rx="27" ry="18"/>
<text text-anchor="middle" x="137" y="-950.3" font-family="Times,serif" font-size="14.00">54</text>
</g>
<!-- 1&#45;&gt;54 -->
<g id="edge2" class="edge">
<title>1&#45;&gt;54</title>
<path fill="none" stroke="black" d="M158.36,-1008.41C155.09,-1000.22 151.06,-990.14 147.38,-980.95"/>
<polygon fill="black" stroke="black" points="150.55,-979.45 143.59,-971.47 144.05,-982.05 150.55,-979.45"/>
</g>
<!-- 71 -->
<g id="node75" class="node">
<title>71</title>
<ellipse fill="none" stroke="black" cx="137" cy="-882" rx="27" ry="18"/>
<text text-anchor="middle" x="137" y="-878.3" font-family="Times,serif" font-size="14.00">71</text>
</g>
<!-- 54&#45;&gt;71 -->
<g id="edge55" class="edge">
<title>54&#45;&gt;71</title>
<path fill="none" stroke="black" d="M137,-935.7C137,-927.98 137,-918.71 137,-910.11"/>
<polygon fill="black" stroke="black" points="140.5,-910.1 137,-900.1 133.5,-910.1 140.5,-910.1"/>
</g>
<!-- 2 -->
<g id="node5" class="node">
<title>2</title>
<ellipse fill="none" stroke="black" cx="275" cy="-1026" rx="27" ry="18"/>
<text text-anchor="middle" x="275" y="-1022.3" font-family="Times,serif" font-size="14.00">2</text>
</g>
<!-- 50 -->
<g id="node6" class="node">
<title>50</title>
<ellipse fill="none" stroke="black" cx="247" cy="-954" rx="27" ry="18"/>
<text text-anchor="middle" x="247" y="-950.3" font-family="Times,serif" font-size="14.00">50</text>
</g>
<!-- 2&#45;&gt;50 -->
<g id="edge3" class="edge">
<title>2&#45;&gt;50</title>
<path fill="none" stroke="black" d="M268.36,-1008.41C265.09,-1000.22 261.06,-990.14 257.38,-980.95"/>
<polygon fill="black" stroke="black" points="260.55,-979.45 253.59,-971.47 254.05,-982.05 260.55,-979.45"/>
</g>
<!-- 77 -->
<g id="node72" class="node">
<title>77</title>
<ellipse fill="none" stroke="black" cx="247" cy="-882" rx="27" ry="18"/>
<text text-anchor="middle" x="247" y="-878.3" font-family="Times,serif" font-size="14.00">77</text>
</g>
<!-- 50&#45;&gt;77 -->
<g id="edge51" class="edge">
<title>50&#45;&gt;77</title>
<path fill="none" stroke="black" d="M247,-935.7C247,-927.98 247,-918.71 247,-910.11"/>
<polygon fill="black" stroke="black" points="250.5,-910.1 247,-900.1 243.5,-910.1 250.5,-910.1"/>
</g>
<!-- 3 -->
<g id="node7" class="node">
<title>3</title>
<ellipse fill="none" stroke="black" cx="385" cy="-1026" rx="27" ry="18"/>
<text text-anchor="middle" x="385" y="-1022.3" font-family="Times,serif" font-size="14.00">3</text>
</g>
<!-- 51 -->
<g id="node8" class="node">
<title>51</title>
<ellipse fill="none" stroke="black" cx="357" cy="-954" rx="27" ry="18"/>
<text text-anchor="middle" x="357" y="-950.3" font-family="Times,serif" font-size="14.00">51</text>
</g>
<!-- 3&#45;&gt;51 -->
<g id="edge4" class="edge">
<title>3&#45;&gt;51</title>
<path fill="none" stroke="black" d="M378.36,-1008.41C375.09,-1000.22 371.06,-990.14 367.38,-980.95"/>
<polygon fill="black" stroke="black" points="370.55,-979.45 363.59,-971.47 364.05,-982.05 370.55,-979.45"/>
</g>
<!-- 75 -->
<g id="node73" class="node">
<title>75</title>
<ellipse fill="none" stroke="black" cx="357" cy="-882" rx="27" ry="18"/>
<text text-anchor="middle" x="357" y="-878.3" font-family="Times,serif" font-size="14.00">75</text>
</g>
<!-- 51&#45;&gt;75 -->
<g id="edge52" class="edge">
<title>51&#45;&gt;75</title>
<path fill="none" stroke="black" d="M357,-935.7C357,-927.98 357,-918.71 357,-910.11"/>
<polygon fill="black" stroke="black" points="360.5,-910.1 357,-900.1 353.5,-910.1 360.5,-910.1"/>
</g>
<!-- 4 -->
<g id="node9" class="node">
<title>4</title>
<ellipse fill="none" stroke="black" cx="137" cy="-522" rx="27" ry="18"/>
<text text-anchor="middle" x="137" y="-518.3" font-family="Times,serif" font-size="14.00">4</text>
</g>
<!-- 52 -->
<g id="node10" class="node">
<title>52</title>
<ellipse fill="none" stroke="black" cx="137" cy="-450" rx="27" ry="18"/>
<text text-anchor="middle" x="137" y="-446.3" font-family="Times,serif" font-size="14.00">52</text>
</g>
<!-- 4&#45;&gt;52 -->
<g id="edge5" class="edge">
<title>4&#45;&gt;52</title>
<path fill="none" stroke="black" d="M137,-503.7C137,-495.98 137,-486.71 137,-478.11"/>
<polygon fill="black" stroke="black" points="140.5,-478.1 137,-468.1 133.5,-478.1 140.5,-478.1"/>
</g>
<!-- 76 -->
<g id="node74" class="node">
<title>76</title>
<ellipse fill="none" stroke="black" cx="137" cy="-378" rx="27" ry="18"/>
<text text-anchor="middle" x="137" y="-374.3" font-family="Times,serif" font-size="14.00">76</text>
</g>
<!-- 52&#45;&gt;76 -->
<g id="edge53" class="edge">
<title>52&#45;&gt;76</title>
<path fill="none" stroke="black" d="M137,-431.7C137,-423.98 137,-414.71 137,-406.11"/>
<polygon fill="black" stroke="black" points="140.5,-406.1 137,-396.1 133.5,-406.1 140.5,-406.1"/>
</g>
<!-- 5 -->
<g id="node11" class="node">
<title>5</title>
<ellipse fill="none" stroke="black" cx="247" cy="-522" rx="27" ry="18"/>
<text text-anchor="middle" x="247" y="-518.3" font-family="Times,serif" font-size="14.00">5</text>
</g>
<!-- 53 -->
<g id="node12" class="node">
<title>53</title>
<ellipse fill="none" stroke="black" cx="247" cy="-450" rx="27" ry="18"/>
<text text-anchor="middle" x="247" y="-446.3" font-family="Times,serif" font-size="14.00">53</text>
</g>
<!-- 5&#45;&gt;53 -->
<g id="edge6" class="edge">
<title>5&#45;&gt;53</title>
<path fill="none" stroke="black" d="M247,-503.7C247,-495.98 247,-486.71 247,-478.11"/>
<polygon fill="black" stroke="black" points="250.5,-478.1 247,-468.1 243.5,-478.1 250.5,-478.1"/>
</g>
<!-- 18 -->
<g id="node37" class="node">
<title>18</title>
<ellipse fill="none" stroke="black" cx="247" cy="-378" rx="27" ry="18"/>
<text text-anchor="middle" x="247" y="-374.3" font-family="Times,serif" font-size="14.00">18</text>
</g>
<!-- 53&#45;&gt;18 -->
<g id="edge54" class="edge">
<title>53&#45;&gt;18</title>
<path fill="none" stroke="black" d="M247,-431.7C247,-423.98 247,-414.71 247,-406.11"/>
<polygon fill="black" stroke="black" points="250.5,-406.1 247,-396.1 243.5,-406.1 250.5,-406.1"/>
</g>
<!-- 6 -->
<g id="node13" class="node">
<title>6</title>
<ellipse fill="none" stroke="black" cx="504" cy="-1026" rx="27" ry="18"/>
<text text-anchor="middle" x="504" y="-1022.3" font-family="Times,serif" font-size="14.00">6</text>
</g>
<!-- 49 -->
<g id="node14" class="node">
<title>49</title>
<ellipse fill="none" stroke="black" cx="476" cy="-954" rx="27" ry="18"/>
<text text-anchor="middle" x="476" y="-950.3" font-family="Times,serif" font-size="14.00">49</text>
</g>
<!-- 6&#45;&gt;49 -->
<g id="edge7" class="edge">
<title>6&#45;&gt;49</title>
<path fill="none" stroke="black" d="M497.36,-1008.41C494.09,-1000.22 490.06,-990.14 486.38,-980.95"/>
<polygon fill="black" stroke="black" points="489.55,-979.45 482.59,-971.47 483.05,-982.05 489.55,-979.45"/>
</g>
<!-- 80 -->
<g id="node71" class="node">
<title>80</title>
<ellipse fill="none" stroke="black" cx="486" cy="-882" rx="27" ry="18"/>
<text text-anchor="middle" x="486" y="-878.3" font-family="Times,serif" font-size="14.00">80</text>
</g>
<!-- 49&#45;&gt;80 -->
<g id="edge50" class="edge">
<title>49&#45;&gt;80</title>
<path fill="none" stroke="black" d="M478.42,-936.05C479.52,-928.35 480.85,-919.03 482.09,-910.36"/>
<polygon fill="black" stroke="black" points="485.58,-910.67 483.53,-900.28 478.65,-909.68 485.58,-910.67"/>
</g>
<!-- 7 -->
<g id="node15" class="node">
<title>7</title>
<ellipse fill="none" stroke="black" cx="357" cy="-450" rx="27" ry="18"/>
<text text-anchor="middle" x="357" y="-446.3" font-family="Times,serif" font-size="14.00">7</text>
</g>
<!-- 39 -->
<g id="node16" class="node">
<title>39</title>
<ellipse fill="none" stroke="black" cx="357" cy="-378" rx="27" ry="18"/>
<text text-anchor="middle" x="357" y="-374.3" font-family="Times,serif" font-size="14.00">39</text>
</g>
<!-- 7&#45;&gt;39 -->
<g id="edge8" class="edge">
<title>7&#45;&gt;39</title>
<path fill="none" stroke="black" d="M357,-431.7C357,-423.98 357,-414.71 357,-406.11"/>
<polygon fill="black" stroke="black" points="360.5,-406.1 357,-396.1 353.5,-406.1 360.5,-406.1"/>
</g>
<!-- 61 -->
<g id="node66" class="node">
<title>61</title>
<ellipse fill="none" stroke="black" cx="357" cy="-306" rx="27" ry="18"/>
<text text-anchor="middle" x="357" y="-302.3" font-family="Times,serif" font-size="14.00">61</text>
</g>
<!-- 39&#45;&gt;61 -->
<g id="edge40" class="edge">
<title>39&#45;&gt;61</title>
<path fill="none" stroke="black" d="M357,-359.7C357,-351.98 357,-342.71 357,-334.11"/>
<polygon fill="black" stroke="black" points="360.5,-334.1 357,-324.1 353.5,-334.1 360.5,-334.1"/>
</g>
<!-- 8 -->
<g id="node17" class="node">
<title>8</title>
<ellipse fill="none" stroke="black" cx="623" cy="-1026" rx="27" ry="18"/>
<text text-anchor="middle" x="623" y="-1022.3" font-family="Times,serif" font-size="14.00">8</text>
</g>
<!-- 35 -->
<g id="node18" class="node">
<title>35</title>
<ellipse fill="none" stroke="black" cx="586" cy="-954" rx="27" ry="18"/>
<text text-anchor="middle" x="586" y="-950.3" font-family="Times,serif" font-size="14.00">35</text>
</g>
<!-- 8&#45;&gt;35 -->
<g id="edge9" class="edge">
<title>8&#45;&gt;35</title>
<path fill="none" stroke="black" d="M614.42,-1008.76C609.94,-1000.28 604.35,-989.71 599.32,-980.2"/>
<polygon fill="black" stroke="black" points="602.3,-978.35 594.54,-971.15 596.11,-981.62 602.3,-978.35"/>
</g>
<!-- 55 -->
<g id="node63" class="node">
<title>55</title>
<ellipse fill="none" stroke="black" cx="586" cy="-882" rx="27" ry="18"/>
<text text-anchor="middle" x="586" y="-878.3" font-family="Times,serif" font-size="14.00">55</text>
</g>
<!-- 35&#45;&gt;55 -->
<g id="edge36" class="edge">
<title>35&#45;&gt;55</title>
<path fill="none" stroke="black" d="M586,-935.7C586,-927.98 586,-918.71 586,-910.11"/>
<polygon fill="black" stroke="black" points="589.5,-910.1 586,-900.1 582.5,-910.1 589.5,-910.1"/>
</g>
<!-- 9 -->
<g id="node19" class="node">
<title>9</title>
<ellipse fill="none" stroke="black" cx="714" cy="-1026" rx="27" ry="18"/>
<text text-anchor="middle" x="714" y="-1022.3" font-family="Times,serif" font-size="14.00">9</text>
</g>
<!-- 36 -->
<g id="node20" class="node">
<title>36</title>
<ellipse fill="none" stroke="black" cx="704" cy="-954" rx="27" ry="18"/>
<text text-anchor="middle" x="704" y="-950.3" font-family="Times,serif" font-size="14.00">36</text>
</g>
<!-- 9&#45;&gt;36 -->
<g id="edge10" class="edge">
<title>9&#45;&gt;36</title>
<path fill="none" stroke="black" d="M711.58,-1008.05C710.48,-1000.35 709.15,-991.03 707.91,-982.36"/>
<polygon fill="black" stroke="black" points="711.35,-981.68 706.47,-972.28 704.42,-982.67 711.35,-981.68"/>
</g>
<!-- 56 -->
<g id="node64" class="node">
<title>56</title>
<ellipse fill="none" stroke="black" cx="704" cy="-882" rx="27" ry="18"/>
<text text-anchor="middle" x="704" y="-878.3" font-family="Times,serif" font-size="14.00">56</text>
</g>
<!-- 36&#45;&gt;56 -->
<g id="edge37" class="edge">
<title>36&#45;&gt;56</title>
<path fill="none" stroke="black" d="M704,-935.7C704,-927.98 704,-918.71 704,-910.11"/>
<polygon fill="black" stroke="black" points="707.5,-910.1 704,-900.1 700.5,-910.1 707.5,-910.1"/>
</g>
<!-- 10 -->
<g id="node21" class="node">
<title>10</title>
<ellipse fill="none" stroke="black" cx="842" cy="-1026" rx="27" ry="18"/>
<text text-anchor="middle" x="842" y="-1022.3" font-family="Times,serif" font-size="14.00">10</text>
</g>
<!-- 37 -->
<g id="node22" class="node">
<title>37</title>
<ellipse fill="none" stroke="black" cx="814" cy="-954" rx="27" ry="18"/>
<text text-anchor="middle" x="814" y="-950.3" font-family="Times,serif" font-size="14.00">37</text>
</g>
<!-- 10&#45;&gt;37 -->
<g id="edge11" class="edge">
<title>10&#45;&gt;37</title>
<path fill="none" stroke="black" d="M835.36,-1008.41C832.09,-1000.22 828.06,-990.14 824.38,-980.95"/>
<polygon fill="black" stroke="black" points="827.55,-979.45 820.59,-971.47 821.05,-982.05 827.55,-979.45"/>
</g>
<!-- 57 -->
<g id="node65" class="node">
<title>57</title>
<ellipse fill="none" stroke="black" cx="814" cy="-882" rx="27" ry="18"/>
<text text-anchor="middle" x="814" y="-878.3" font-family="Times,serif" font-size="14.00">57</text>
</g>
<!-- 37&#45;&gt;57 -->
<g id="edge38" class="edge">
<title>37&#45;&gt;57</title>
<path fill="none" stroke="black" d="M814,-935.7C814,-927.98 814,-918.71 814,-910.11"/>
<polygon fill="black" stroke="black" points="817.5,-910.1 814,-900.1 810.5,-910.1 817.5,-910.1"/>
</g>
<!-- 11 -->
<g id="node23" class="node">
<title>11</title>
<ellipse fill="none" stroke="black" cx="586" cy="-522" rx="27" ry="18"/>
<text text-anchor="middle" x="586" y="-518.3" font-family="Times,serif" font-size="14.00">11</text>
</g>
<!-- 38 -->
<g id="node24" class="node">
<title>38</title>
<ellipse fill="none" stroke="black" cx="625" cy="-450" rx="27" ry="18"/>
<text text-anchor="middle" x="625" y="-446.3" font-family="Times,serif" font-size="14.00">38</text>
</g>
<!-- 11&#45;&gt;38 -->
<g id="edge12" class="edge">
<title>11&#45;&gt;38</title>
<path fill="none" stroke="black" d="M595.05,-504.76C599.82,-496.19 605.78,-485.49 611.13,-475.9"/>
<polygon fill="black" stroke="black" points="614.19,-477.59 616,-467.15 608.08,-474.18 614.19,-477.59"/>
</g>
<!-- 38&#45;&gt;8 -->
<g id="edge39" class="edge">
<title>38&#45;&gt;8</title>
<path fill="none" stroke="black" d="M628.16,-467.98C632.82,-494.55 641,-547.6 641,-593 641,-883 641,-883 641,-883 641,-923.32 633.77,-969.58 628.47,-998.05"/>
<polygon fill="black" stroke="black" points="625,-997.56 626.56,-1008.04 631.88,-998.88 625,-997.56"/>
</g>
<!-- 12 -->
<g id="node25" class="node">
<title>12</title>
<ellipse fill="none" stroke="black" cx="247" cy="-234" rx="27" ry="18"/>
<text text-anchor="middle" x="247" y="-230.3" font-family="Times,serif" font-size="14.00">12</text>
</g>
<!-- 34 -->
<g id="node26" class="node">
<title>34</title>
<ellipse fill="none" stroke="black" cx="247" cy="-162" rx="27" ry="18"/>
<text text-anchor="middle" x="247" y="-158.3" font-family="Times,serif" font-size="14.00">34</text>
</g>
<!-- 12&#45;&gt;34 -->
<g id="edge13" class="edge">
<title>12&#45;&gt;34</title>
<path fill="none" stroke="black" d="M247,-215.7C247,-207.98 247,-198.71 247,-190.11"/>
<polygon fill="black" stroke="black" points="250.5,-190.1 247,-180.1 243.5,-190.1 250.5,-190.1"/>
</g>
<!-- 58 -->
<g id="node62" class="node">
<title>58</title>
<ellipse fill="none" stroke="black" cx="247" cy="-90" rx="27" ry="18"/>
<text text-anchor="middle" x="247" y="-86.3" font-family="Times,serif" font-size="14.00">58</text>
</g>
<!-- 34&#45;&gt;58 -->
<g id="edge35" class="edge">
<title>34&#45;&gt;58</title>
<path fill="none" stroke="black" d="M247,-143.7C247,-135.98 247,-126.71 247,-118.11"/>
<polygon fill="black" stroke="black" points="250.5,-118.1 247,-108.1 243.5,-118.1 250.5,-118.1"/>
</g>
<!-- 13 -->
<g id="node27" class="node">
<title>13</title>
<ellipse fill="none" stroke="black" cx="137" cy="-162" rx="27" ry="18"/>
<text text-anchor="middle" x="137" y="-158.3" font-family="Times,serif" font-size="14.00">13</text>
</g>
<!-- 43 -->
<g id="node28" class="node">
<title>43</title>
<ellipse fill="none" stroke="black" cx="137" cy="-90" rx="27" ry="18"/>
<text text-anchor="middle" x="137" y="-86.3" font-family="Times,serif" font-size="14.00">43</text>
</g>
<!-- 13&#45;&gt;43 -->
<g id="edge14" class="edge">
<title>13&#45;&gt;43</title>
<path fill="none" stroke="black" d="M137,-143.7C137,-135.98 137,-126.71 137,-118.11"/>
<polygon fill="black" stroke="black" points="140.5,-118.1 137,-108.1 133.5,-118.1 140.5,-118.1"/>
</g>
<!-- 63 -->
<g id="node69" class="node">
<title>63</title>
<ellipse fill="none" stroke="black" cx="165" cy="-18" rx="27" ry="18"/>
<text text-anchor="middle" x="165" y="-14.3" font-family="Times,serif" font-size="14.00">63</text>
</g>
<!-- 43&#45;&gt;63 -->
<g id="edge44" class="edge">
<title>43&#45;&gt;63</title>
<path fill="none" stroke="black" d="M143.64,-72.41C146.91,-64.22 150.94,-54.14 154.62,-44.95"/>
<polygon fill="black" stroke="black" points="157.95,-46.05 158.41,-35.47 151.45,-43.45 157.95,-46.05"/>
</g>
<!-- 14 -->
<g id="node29" class="node">
<title>14</title>
<ellipse fill="none" stroke="black" cx="814" cy="-810" rx="27" ry="18"/>
<text text-anchor="middle" x="814" y="-806.3" font-family="Times,serif" font-size="14.00">14</text>
</g>
<!-- 40 -->
<g id="node30" class="node">
<title>40</title>
<ellipse fill="none" stroke="black" cx="814" cy="-738" rx="27" ry="18"/>
<text text-anchor="middle" x="814" y="-734.3" font-family="Times,serif" font-size="14.00">40</text>
</g>
<!-- 14&#45;&gt;40 -->
<g id="edge15" class="edge">
<title>14&#45;&gt;40</title>
<path fill="none" stroke="black" d="M814,-791.7C814,-783.98 814,-774.71 814,-766.11"/>
<polygon fill="black" stroke="black" points="817.5,-766.1 814,-756.1 810.5,-766.1 817.5,-766.1"/>
</g>
<!-- 59 -->
<g id="node67" class="node">
<title>59</title>
<ellipse fill="none" stroke="black" cx="814" cy="-666" rx="27" ry="18"/>
<text text-anchor="middle" x="814" y="-662.3" font-family="Times,serif" font-size="14.00">59</text>
</g>
<!-- 40&#45;&gt;59 -->
<g id="edge41" class="edge">
<title>40&#45;&gt;59</title>
<path fill="none" stroke="black" d="M814,-719.7C814,-711.98 814,-702.71 814,-694.11"/>
<polygon fill="black" stroke="black" points="817.5,-694.1 814,-684.1 810.5,-694.1 817.5,-694.1"/>
</g>
<!-- 15 -->
<g id="node31" class="node">
<title>15</title>
<ellipse fill="none" stroke="black" cx="970" cy="-1026" rx="27" ry="18"/>
<text text-anchor="middle" x="970" y="-1022.3" font-family="Times,serif" font-size="14.00">15</text>
</g>
<!-- 41 -->
<g id="node32" class="node">
<title>41</title>
<ellipse fill="none" stroke="black" cx="924" cy="-954" rx="27" ry="18"/>
<text text-anchor="middle" x="924" y="-950.3" font-family="Times,serif" font-size="14.00">41</text>
</g>
<!-- 15&#45;&gt;41 -->
<g id="edge16" class="edge">
<title>15&#45;&gt;41</title>
<path fill="none" stroke="black" d="M959.56,-1009.12C953.8,-1000.34 946.52,-989.26 940.04,-979.42"/>
<polygon fill="black" stroke="black" points="942.81,-977.26 934.4,-970.82 936.96,-981.1 942.81,-977.26"/>
</g>
<!-- 60 -->
<g id="node68" class="node">
<title>60</title>
<ellipse fill="none" stroke="black" cx="947" cy="-882" rx="27" ry="18"/>
<text text-anchor="middle" x="947" y="-878.3" font-family="Times,serif" font-size="14.00">60</text>
</g>
<!-- 41&#45;&gt;60 -->
<g id="edge42" class="edge">
<title>41&#45;&gt;60</title>
<path fill="none" stroke="black" d="M929.57,-936.05C932.2,-928.06 935.39,-918.33 938.33,-909.4"/>
<polygon fill="black" stroke="black" points="941.69,-910.38 941.48,-899.79 935.04,-908.2 941.69,-910.38"/>
</g>
<!-- 16 -->
<g id="node33" class="node">
<title>16</title>
<ellipse fill="none" stroke="black" cx="704" cy="-522" rx="27" ry="18"/>
<text text-anchor="middle" x="704" y="-518.3" font-family="Times,serif" font-size="14.00">16</text>
</g>
<!-- 42 -->
<g id="node34" class="node">
<title>42</title>
<ellipse fill="none" stroke="black" cx="720" cy="-450" rx="27" ry="18"/>
<text text-anchor="middle" x="720" y="-446.3" font-family="Times,serif" font-size="14.00">42</text>
</g>
<!-- 16&#45;&gt;42 -->
<g id="edge17" class="edge">
<title>16&#45;&gt;42</title>
<path fill="none" stroke="black" d="M707.87,-504.05C709.65,-496.26 711.81,-486.82 713.81,-478.08"/>
<polygon fill="black" stroke="black" points="717.24,-478.8 716.05,-468.28 710.41,-477.24 717.24,-478.8"/>
</g>
<!-- 42&#45;&gt;9 -->
<g id="edge43" class="edge">
<title>42&#45;&gt;9</title>
<path fill="none" stroke="black" d="M727.71,-467.64C739.07,-493.76 759,-546.21 759,-593 759,-883 759,-883 759,-883 759,-923.45 753.23,-933.78 740,-972 736.79,-981.29 732.33,-991.06 728.01,-999.64"/>
<polygon fill="black" stroke="black" points="724.79,-998.25 723.28,-1008.74 731,-1001.49 724.79,-998.25"/>
</g>
<!-- 17 -->
<g id="node35" class="node">
<title>17</title>
<ellipse fill="none" stroke="black" cx="357" cy="-234" rx="27" ry="18"/>
<text text-anchor="middle" x="357" y="-230.3" font-family="Times,serif" font-size="14.00">17</text>
</g>
<!-- 29 -->
<g id="node36" class="node">
<title>29</title>
<ellipse fill="none" stroke="black" cx="357" cy="-162" rx="27" ry="18"/>
<text text-anchor="middle" x="357" y="-158.3" font-family="Times,serif" font-size="14.00">29</text>
</g>
<!-- 17&#45;&gt;29 -->
<g id="edge18" class="edge">
<title>17&#45;&gt;29</title>
<path fill="none" stroke="black" d="M357,-215.7C357,-207.98 357,-198.71 357,-190.11"/>
<polygon fill="black" stroke="black" points="360.5,-190.1 357,-180.1 353.5,-190.1 360.5,-190.1"/>
</g>
<!-- 68 -->
<g id="node58" class="node">
<title>68</title>
<ellipse fill="none" stroke="black" cx="357" cy="-90" rx="27" ry="18"/>
<text text-anchor="middle" x="357" y="-86.3" font-family="Times,serif" font-size="14.00">68</text>
</g>
<!-- 29&#45;&gt;68 -->
<g id="edge30" class="edge">
<title>29&#45;&gt;68</title>
<path fill="none" stroke="black" d="M357,-143.7C357,-135.98 357,-126.71 357,-118.11"/>
<polygon fill="black" stroke="black" points="360.5,-118.1 357,-108.1 353.5,-118.1 360.5,-118.1"/>
</g>
<!-- 46 -->
<g id="node38" class="node">
<title>46</title>
<ellipse fill="none" stroke="black" cx="247" cy="-306" rx="27" ry="18"/>
<text text-anchor="middle" x="247" y="-302.3" font-family="Times,serif" font-size="14.00">46</text>
</g>
<!-- 18&#45;&gt;46 -->
<g id="edge19" class="edge">
<title>18&#45;&gt;46</title>
<path fill="none" stroke="black" d="M247,-359.7C247,-351.98 247,-342.71 247,-334.11"/>
<polygon fill="black" stroke="black" points="250.5,-334.1 247,-324.1 243.5,-334.1 250.5,-334.1"/>
</g>
<!-- 46&#45;&gt;12 -->
<g id="edge47" class="edge">
<title>46&#45;&gt;12</title>
<path fill="none" stroke="black" d="M247,-287.7C247,-279.98 247,-270.71 247,-262.11"/>
<polygon fill="black" stroke="black" points="250.5,-262.1 247,-252.1 243.5,-262.1 250.5,-262.1"/>
</g>
<!-- 19 -->
<g id="node39" class="node">
<title>19</title>
<ellipse fill="none" stroke="black" cx="704" cy="-738" rx="27" ry="18"/>
<text text-anchor="middle" x="704" y="-734.3" font-family="Times,serif" font-size="14.00">19</text>
</g>
<!-- 44 -->
<g id="node40" class="node">
<title>44</title>
<ellipse fill="none" stroke="black" cx="704" cy="-666" rx="27" ry="18"/>
<text text-anchor="middle" x="704" y="-662.3" font-family="Times,serif" font-size="14.00">44</text>
</g>
<!-- 19&#45;&gt;44 -->
<g id="edge20" class="edge">
<title>19&#45;&gt;44</title>
<path fill="none" stroke="black" d="M704,-719.7C704,-711.98 704,-702.71 704,-694.11"/>
<polygon fill="black" stroke="black" points="707.5,-694.1 704,-684.1 700.5,-694.1 707.5,-694.1"/>
</g>
<!-- 62 -->
<g id="node70" class="node">
<title>62</title>
<ellipse fill="none" stroke="black" cx="704" cy="-594" rx="27" ry="18"/>
<text text-anchor="middle" x="704" y="-590.3" font-family="Times,serif" font-size="14.00">62</text>
</g>
<!-- 44&#45;&gt;62 -->
<g id="edge45" class="edge">
<title>44&#45;&gt;62</title>
<path fill="none" stroke="black" d="M704,-647.7C704,-639.98 704,-630.71 704,-622.11"/>
<polygon fill="black" stroke="black" points="707.5,-622.1 704,-612.1 700.5,-622.1 707.5,-622.1"/>
</g>
<!-- 20 -->
<g id="node41" class="node">
<title>20</title>
<ellipse fill="none" stroke="black" cx="814" cy="-522" rx="27" ry="18"/>
<text text-anchor="middle" x="814" y="-518.3" font-family="Times,serif" font-size="14.00">20</text>
</g>
<!-- 45 -->
<g id="node42" class="node">
<title>45</title>
<ellipse fill="none" stroke="black" cx="841" cy="-450" rx="27" ry="18"/>
<text text-anchor="middle" x="841" y="-446.3" font-family="Times,serif" font-size="14.00">45</text>
</g>
<!-- 20&#45;&gt;45 -->
<g id="edge21" class="edge">
<title>20&#45;&gt;45</title>
<path fill="none" stroke="black" d="M820.4,-504.41C823.51,-496.34 827.33,-486.43 830.83,-477.35"/>
<polygon fill="black" stroke="black" points="834.13,-478.55 834.46,-467.96 827.6,-476.03 834.13,-478.55"/>
</g>
<!-- 45&#45;&gt;10 -->
<g id="edge46" class="edge">
<title>45&#45;&gt;10</title>
<path fill="none" stroke="black" d="M846.53,-467.84C854.69,-494.21 869,-547.02 869,-593 869,-883 869,-883 869,-883 869,-923.72 858.15,-969.87 850.21,-998.21"/>
<polygon fill="black" stroke="black" points="846.75,-997.57 847.33,-1008.15 853.47,-999.51 846.75,-997.57"/>
</g>
<!-- 21 -->
<g id="node43" class="node">
<title>21</title>
<ellipse fill="none" stroke="black" cx="137" cy="-810" rx="27" ry="18"/>
<text text-anchor="middle" x="137" y="-806.3" font-family="Times,serif" font-size="14.00">21</text>
</g>
<!-- 30 -->
<g id="node44" class="node">
<title>30</title>
<ellipse fill="none" stroke="black" cx="137" cy="-738" rx="27" ry="18"/>
<text text-anchor="middle" x="137" y="-734.3" font-family="Times,serif" font-size="14.00">30</text>
</g>
<!-- 21&#45;&gt;30 -->
<g id="edge22" class="edge">
<title>21&#45;&gt;30</title>
<path fill="none" stroke="black" d="M137,-791.7C137,-783.98 137,-774.71 137,-766.11"/>
<polygon fill="black" stroke="black" points="140.5,-766.1 137,-756.1 133.5,-766.1 140.5,-766.1"/>
</g>
<!-- 65 -->
<g id="node59" class="node">
<title>65</title>
<ellipse fill="none" stroke="black" cx="137" cy="-666" rx="27" ry="18"/>
<text text-anchor="middle" x="137" y="-662.3" font-family="Times,serif" font-size="14.00">65</text>
</g>
<!-- 30&#45;&gt;65 -->
<g id="edge31" class="edge">
<title>30&#45;&gt;65</title>
<path fill="none" stroke="black" d="M137,-719.7C137,-711.98 137,-702.71 137,-694.11"/>
<polygon fill="black" stroke="black" points="140.5,-694.1 137,-684.1 133.5,-694.1 140.5,-694.1"/>
</g>
<!-- 22 -->
<g id="node45" class="node">
<title>22</title>
<ellipse fill="none" stroke="black" cx="357" cy="-594" rx="27" ry="18"/>
<text text-anchor="middle" x="357" y="-590.3" font-family="Times,serif" font-size="14.00">22</text>
</g>
<!-- 48 -->
<g id="node46" class="node">
<title>48</title>
<ellipse fill="none" stroke="black" cx="357" cy="-522" rx="27" ry="18"/>
<text text-anchor="middle" x="357" y="-518.3" font-family="Times,serif" font-size="14.00">48</text>
</g>
<!-- 22&#45;&gt;48 -->
<g id="edge23" class="edge">
<title>22&#45;&gt;48</title>
<path fill="none" stroke="black" d="M357,-575.7C357,-567.98 357,-558.71 357,-550.11"/>
<polygon fill="black" stroke="black" points="360.5,-550.1 357,-540.1 353.5,-550.1 360.5,-550.1"/>
</g>
<!-- 48&#45;&gt;7 -->
<g id="edge49" class="edge">
<title>48&#45;&gt;7</title>
<path fill="none" stroke="black" d="M357,-503.7C357,-495.98 357,-486.71 357,-478.11"/>
<polygon fill="black" stroke="black" points="360.5,-478.1 357,-468.1 353.5,-478.1 360.5,-478.1"/>
</g>
<!-- 23 -->
<g id="node47" class="node">
<title>23</title>
<ellipse fill="none" stroke="black" cx="586" cy="-666" rx="27" ry="18"/>
<text text-anchor="middle" x="586" y="-662.3" font-family="Times,serif" font-size="14.00">23</text>
</g>
<!-- 47 -->
<g id="node48" class="node">
<title>47</title>
<ellipse fill="none" stroke="black" cx="586" cy="-594" rx="27" ry="18"/>
<text text-anchor="middle" x="586" y="-590.3" font-family="Times,serif" font-size="14.00">47</text>
</g>
<!-- 23&#45;&gt;47 -->
<g id="edge24" class="edge">
<title>23&#45;&gt;47</title>
<path fill="none" stroke="black" d="M586,-647.7C586,-639.98 586,-630.71 586,-622.11"/>
<polygon fill="black" stroke="black" points="589.5,-622.1 586,-612.1 582.5,-622.1 589.5,-622.1"/>
</g>
<!-- 47&#45;&gt;11 -->
<g id="edge48" class="edge">
<title>47&#45;&gt;11</title>
<path fill="none" stroke="black" d="M586,-575.7C586,-567.98 586,-558.71 586,-550.11"/>
<polygon fill="black" stroke="black" points="589.5,-550.1 586,-540.1 582.5,-550.1 589.5,-550.1"/>
</g>
<!-- 24 -->
<g id="node49" class="node">
<title>24</title>
<ellipse fill="none" stroke="black" cx="247" cy="-810" rx="27" ry="18"/>
<text text-anchor="middle" x="247" y="-806.3" font-family="Times,serif" font-size="14.00">24</text>
</g>
<!-- 31 -->
<g id="node50" class="node">
<title>31</title>
<ellipse fill="none" stroke="black" cx="247" cy="-738" rx="27" ry="18"/>
<text text-anchor="middle" x="247" y="-734.3" font-family="Times,serif" font-size="14.00">31</text>
</g>
<!-- 24&#45;&gt;31 -->
<g id="edge25" class="edge">
<title>24&#45;&gt;31</title>
<path fill="none" stroke="black" d="M247,-791.7C247,-783.98 247,-774.71 247,-766.11"/>
<polygon fill="black" stroke="black" points="250.5,-766.1 247,-756.1 243.5,-766.1 250.5,-766.1"/>
</g>
<!-- 66 -->
<g id="node60" class="node">
<title>66</title>
<ellipse fill="none" stroke="black" cx="247" cy="-666" rx="27" ry="18"/>
<text text-anchor="middle" x="247" y="-662.3" font-family="Times,serif" font-size="14.00">66</text>
</g>
<!-- 31&#45;&gt;66 -->
<g id="edge32" class="edge">
<title>31&#45;&gt;66</title>
<path fill="none" stroke="black" d="M247,-719.7C247,-711.98 247,-702.71 247,-694.11"/>
<polygon fill="black" stroke="black" points="250.5,-694.1 247,-684.1 243.5,-694.1 250.5,-694.1"/>
</g>
<!-- 25 -->
<g id="node51" class="node">
<title>25</title>
<ellipse fill="none" stroke="black" cx="137" cy="-306" rx="27" ry="18"/>
<text text-anchor="middle" x="137" y="-302.3" font-family="Times,serif" font-size="14.00">25</text>
</g>
<!-- 33 -->
<g id="node52" class="node">
<title>33</title>
<ellipse fill="none" stroke="black" cx="137" cy="-234" rx="27" ry="18"/>
<text text-anchor="middle" x="137" y="-230.3" font-family="Times,serif" font-size="14.00">33</text>
</g>
<!-- 25&#45;&gt;33 -->
<g id="edge26" class="edge">
<title>25&#45;&gt;33</title>
<path fill="none" stroke="black" d="M137,-287.7C137,-279.98 137,-270.71 137,-262.11"/>
<polygon fill="black" stroke="black" points="140.5,-262.1 137,-252.1 133.5,-262.1 140.5,-262.1"/>
</g>
<!-- 33&#45;&gt;13 -->
<g id="edge34" class="edge">
<title>33&#45;&gt;13</title>
<path fill="none" stroke="black" d="M137,-215.7C137,-207.98 137,-198.71 137,-190.11"/>
<polygon fill="black" stroke="black" points="140.5,-190.1 137,-180.1 133.5,-190.1 140.5,-190.1"/>
</g>
<!-- 26 -->
<g id="node53" class="node">
<title>26</title>
<ellipse fill="none" stroke="black" cx="357" cy="-810" rx="27" ry="18"/>
<text text-anchor="middle" x="357" y="-806.3" font-family="Times,serif" font-size="14.00">26</text>
</g>
<!-- 32 -->
<g id="node54" class="node">
<title>32</title>
<ellipse fill="none" stroke="black" cx="357" cy="-738" rx="27" ry="18"/>
<text text-anchor="middle" x="357" y="-734.3" font-family="Times,serif" font-size="14.00">32</text>
</g>
<!-- 26&#45;&gt;32 -->
<g id="edge27" class="edge">
<title>26&#45;&gt;32</title>
<path fill="none" stroke="black" d="M357,-791.7C357,-783.98 357,-774.71 357,-766.11"/>
<polygon fill="black" stroke="black" points="360.5,-766.1 357,-756.1 353.5,-766.1 360.5,-766.1"/>
</g>
<!-- 67 -->
<g id="node61" class="node">
<title>67</title>
<ellipse fill="none" stroke="black" cx="357" cy="-666" rx="27" ry="18"/>
<text text-anchor="middle" x="357" y="-662.3" font-family="Times,serif" font-size="14.00">67</text>
</g>
<!-- 32&#45;&gt;67 -->
<g id="edge33" class="edge">
<title>32&#45;&gt;67</title>
<path fill="none" stroke="black" d="M357,-719.7C357,-711.98 357,-702.71 357,-694.11"/>
<polygon fill="black" stroke="black" points="360.5,-694.1 357,-684.1 353.5,-694.1 360.5,-694.1"/>
</g>
<!-- 27 -->
<g id="node55" class="node">
<title>27</title>
<ellipse fill="none" stroke="black" cx="1061" cy="-1026" rx="27" ry="18"/>
<text text-anchor="middle" x="1061" y="-1022.3" font-family="Times,serif" font-size="14.00">27</text>
</g>
<!-- 28 -->
<g id="node56" class="node">
<title>28</title>
<ellipse fill="none" stroke="black" cx="1043" cy="-954" rx="27" ry="18"/>
<text text-anchor="middle" x="1043" y="-950.3" font-family="Times,serif" font-size="14.00">28</text>
</g>
<!-- 27&#45;&gt;28 -->
<g id="edge28" class="edge">
<title>27&#45;&gt;28</title>
<path fill="none" stroke="black" d="M1056.64,-1008.05C1054.61,-1000.14 1052.14,-990.54 1049.86,-981.69"/>
<polygon fill="black" stroke="black" points="1053.2,-980.6 1047.32,-971.79 1046.42,-982.35 1053.2,-980.6"/>
</g>
<!-- 74 -->
<g id="node57" class="node">
<title>74</title>
<ellipse fill="none" stroke="black" cx="1070" cy="-882" rx="27" ry="18"/>
<text text-anchor="middle" x="1070" y="-878.3" font-family="Times,serif" font-size="14.00">74</text>
</g>
<!-- 28&#45;&gt;74 -->
<g id="edge29" class="edge">
<title>28&#45;&gt;74</title>
<path fill="none" stroke="black" d="M1049.4,-936.41C1052.51,-928.34 1056.33,-918.43 1059.83,-909.35"/>
<polygon fill="black" stroke="black" points="1063.13,-910.55 1063.46,-899.96 1056.6,-908.03 1063.13,-910.55"/>
</g>
<!-- 74&#45;&gt;27 -->
<g id="edge75" class="edge">
<title>74&#45;&gt;27</title>
<path fill="none" stroke="black" d="M1074.33,-899.81C1078.35,-917.77 1083.13,-947.02 1079,-972 1077.54,-980.86 1074.78,-990.23 1071.86,-998.59"/>
<polygon fill="black" stroke="black" points="1068.5,-997.59 1068.29,-1008.18 1075.06,-1000.03 1068.5,-997.59"/>
</g>
<!-- 79 -->
<g id="node83" class="node">
<title>79</title>
<ellipse fill="none" stroke="black" cx="375" cy="-18" rx="27" ry="18"/>
<text text-anchor="middle" x="375" y="-14.3" font-family="Times,serif" font-size="14.00">79</text>
</g>
<!-- 68&#45;&gt;79 -->
<g id="edge69" class="edge">
<title>68&#45;&gt;79</title>
<path fill="none" stroke="black" d="M361.36,-72.05C363.39,-64.14 365.86,-54.54 368.14,-45.69"/>
<polygon fill="black" stroke="black" points="371.58,-46.35 370.68,-35.79 364.8,-44.6 371.58,-46.35"/>
</g>
<!-- 82 -->
<g id="node81" class="node">
<title>82</title>
<ellipse fill="none" stroke="black" cx="137" cy="-594" rx="27" ry="18"/>
<text text-anchor="middle" x="137" y="-590.3" font-family="Times,serif" font-size="14.00">82</text>
</g>
<!-- 65&#45;&gt;82 -->
<g id="edge66" class="edge">
<title>65&#45;&gt;82</title>
<path fill="none" stroke="black" d="M137,-647.7C137,-639.98 137,-630.71 137,-622.11"/>
<polygon fill="black" stroke="black" points="140.5,-622.1 137,-612.1 133.5,-622.1 140.5,-622.1"/>
</g>
<!-- 81 -->
<g id="node82" class="node">
<title>81</title>
<ellipse fill="none" stroke="black" cx="247" cy="-594" rx="27" ry="18"/>
<text text-anchor="middle" x="247" y="-590.3" font-family="Times,serif" font-size="14.00">81</text>
</g>
<!-- 66&#45;&gt;81 -->
<g id="edge67" class="edge">
<title>66&#45;&gt;81</title>
<path fill="none" stroke="black" d="M247,-647.7C247,-639.98 247,-630.71 247,-622.11"/>
<polygon fill="black" stroke="black" points="250.5,-622.1 247,-612.1 243.5,-622.1 250.5,-622.1"/>
</g>
<!-- 67&#45;&gt;22 -->
<g id="edge68" class="edge">
<title>67&#45;&gt;22</title>
<path fill="none" stroke="black" d="M357,-647.7C357,-639.98 357,-630.71 357,-622.11"/>
<polygon fill="black" stroke="black" points="360.5,-622.1 357,-612.1 353.5,-622.1 360.5,-622.1"/>
</g>
<!-- 73 -->
<g id="node78" class="node">
<title>73</title>
<ellipse fill="none" stroke="black" cx="284" cy="-18" rx="27" ry="18"/>
<text text-anchor="middle" x="284" y="-14.3" font-family="Times,serif" font-size="14.00">73</text>
</g>
<!-- 58&#45;&gt;73 -->
<g id="edge59" class="edge">
<title>58&#45;&gt;73</title>
<path fill="none" stroke="black" d="M255.58,-72.76C260.06,-64.28 265.65,-53.71 270.68,-44.2"/>
<polygon fill="black" stroke="black" points="273.89,-45.62 275.46,-35.15 267.7,-42.35 273.89,-45.62"/>
</g>
<!-- 69 -->
<g id="node76" class="node">
<title>69</title>
<ellipse fill="none" stroke="black" cx="586" cy="-810" rx="27" ry="18"/>
<text text-anchor="middle" x="586" y="-806.3" font-family="Times,serif" font-size="14.00">69</text>
</g>
<!-- 55&#45;&gt;69 -->
<g id="edge56" class="edge">
<title>55&#45;&gt;69</title>
<path fill="none" stroke="black" d="M586,-863.7C586,-855.98 586,-846.71 586,-838.11"/>
<polygon fill="black" stroke="black" points="589.5,-838.1 586,-828.1 582.5,-838.1 589.5,-838.1"/>
</g>
<!-- 70 -->
<g id="node77" class="node">
<title>70</title>
<ellipse fill="none" stroke="black" cx="704" cy="-810" rx="27" ry="18"/>
<text text-anchor="middle" x="704" y="-806.3" font-family="Times,serif" font-size="14.00">70</text>
</g>
<!-- 56&#45;&gt;70 -->
<g id="edge57" class="edge">
<title>56&#45;&gt;70</title>
<path fill="none" stroke="black" d="M704,-863.7C704,-855.98 704,-846.71 704,-838.11"/>
<polygon fill="black" stroke="black" points="707.5,-838.1 704,-828.1 700.5,-838.1 707.5,-838.1"/>
</g>
<!-- 57&#45;&gt;14 -->
<g id="edge58" class="edge">
<title>57&#45;&gt;14</title>
<path fill="none" stroke="black" d="M814,-863.7C814,-855.98 814,-846.71 814,-838.11"/>
<polygon fill="black" stroke="black" points="817.5,-838.1 814,-828.1 810.5,-838.1 817.5,-838.1"/>
</g>
<!-- 61&#45;&gt;17 -->
<g id="edge62" class="edge">
<title>61&#45;&gt;17</title>
<path fill="none" stroke="black" d="M357,-287.7C357,-279.98 357,-270.71 357,-262.11"/>
<polygon fill="black" stroke="black" points="360.5,-262.1 357,-252.1 353.5,-262.1 360.5,-262.1"/>
</g>
<!-- 72 -->
<g id="node79" class="node">
<title>72</title>
<ellipse fill="none" stroke="black" cx="814" cy="-594" rx="27" ry="18"/>
<text text-anchor="middle" x="814" y="-590.3" font-family="Times,serif" font-size="14.00">72</text>
</g>
<!-- 59&#45;&gt;72 -->
<g id="edge60" class="edge">
<title>59&#45;&gt;72</title>
<path fill="none" stroke="black" d="M814,-647.7C814,-639.98 814,-630.71 814,-622.11"/>
<polygon fill="black" stroke="black" points="817.5,-622.1 814,-612.1 810.5,-622.1 817.5,-622.1"/>
</g>
<!-- 60&#45;&gt;15 -->
<g id="edge61" class="edge">
<title>60&#45;&gt;15</title>
<path fill="none" stroke="black" d="M951.78,-900.07C954.52,-910.4 957.84,-923.87 960,-936 963.66,-956.54 966.23,-979.99 967.85,-997.66"/>
<polygon fill="black" stroke="black" points="964.38,-998.19 968.73,-1007.84 971.35,-997.58 964.38,-998.19"/>
</g>
<!-- 63&#45;&gt;1 -->
<g id="edge64" class="edge">
<title>63&#45;&gt;1</title>
<path fill="none" stroke="black" d="M170.33,-35.85C178.2,-62.25 192,-115.08 192,-161 192,-883 192,-883 192,-883 192,-923.72 181.15,-969.87 173.21,-998.21"/>
<polygon fill="black" stroke="black" points="169.75,-997.57 170.33,-1008.15 176.47,-999.51 169.75,-997.57"/>
</g>
<!-- 62&#45;&gt;16 -->
<g id="edge63" class="edge">
<title>62&#45;&gt;16</title>
<path fill="none" stroke="black" d="M704,-575.7C704,-567.98 704,-558.71 704,-550.11"/>
<polygon fill="black" stroke="black" points="707.5,-550.1 704,-540.1 700.5,-550.1 707.5,-550.1"/>
</g>
<!-- 80&#45;&gt;6 -->
<g id="edge81" class="edge">
<title>80&#45;&gt;6</title>
<path fill="none" stroke="black" d="M496.24,-898.98C502.12,-909.14 508.94,-922.82 512,-936 516.76,-956.5 514.23,-980.25 510.8,-998.07"/>
<polygon fill="black" stroke="black" points="507.33,-997.54 508.66,-1008.05 514.18,-999 507.33,-997.54"/>
</g>
<!-- 77&#45;&gt;24 -->
<g id="edge78" class="edge">
<title>77&#45;&gt;24</title>
<path fill="none" stroke="black" d="M247,-863.7C247,-855.98 247,-846.71 247,-838.11"/>
<polygon fill="black" stroke="black" points="250.5,-838.1 247,-828.1 243.5,-838.1 250.5,-838.1"/>
</g>
<!-- 75&#45;&gt;26 -->
<g id="edge76" class="edge">
<title>75&#45;&gt;26</title>
<path fill="none" stroke="black" d="M357,-863.7C357,-855.98 357,-846.71 357,-838.11"/>
<polygon fill="black" stroke="black" points="360.5,-838.1 357,-828.1 353.5,-838.1 360.5,-838.1"/>
</g>
<!-- 76&#45;&gt;25 -->
<g id="edge77" class="edge">
<title>76&#45;&gt;25</title>
<path fill="none" stroke="black" d="M137,-359.7C137,-351.98 137,-342.71 137,-334.11"/>
<polygon fill="black" stroke="black" points="140.5,-334.1 137,-324.1 133.5,-334.1 140.5,-334.1"/>
</g>
<!-- 71&#45;&gt;21 -->
<g id="edge72" class="edge">
<title>71&#45;&gt;21</title>
<path fill="none" stroke="black" d="M137,-863.7C137,-855.98 137,-846.71 137,-838.11"/>
<polygon fill="black" stroke="black" points="140.5,-838.1 137,-828.1 133.5,-838.1 140.5,-838.1"/>
</g>
<!-- 78 -->
<g id="node84" class="node">
<title>78</title>
<ellipse fill="none" stroke="black" cx="586" cy="-738" rx="27" ry="18"/>
<text text-anchor="middle" x="586" y="-734.3" font-family="Times,serif" font-size="14.00">78</text>
</g>
<!-- 69&#45;&gt;78 -->
<g id="edge70" class="edge">
<title>69&#45;&gt;78</title>
<path fill="none" stroke="black" d="M586,-791.7C586,-783.98 586,-774.71 586,-766.11"/>
<polygon fill="black" stroke="black" points="589.5,-766.1 586,-756.1 582.5,-766.1 589.5,-766.1"/>
</g>
<!-- 70&#45;&gt;19 -->
<g id="edge71" class="edge">
<title>70&#45;&gt;19</title>
<path fill="none" stroke="black" d="M704,-791.7C704,-783.98 704,-774.71 704,-766.11"/>
<polygon fill="black" stroke="black" points="707.5,-766.1 704,-756.1 700.5,-766.1 707.5,-766.1"/>
</g>
<!-- 73&#45;&gt;2 -->
<g id="edge74" class="edge">
<title>73&#45;&gt;2</title>
<path fill="none" stroke="black" d="M287.56,-35.96C292.8,-62.5 302,-115.52 302,-161 302,-883 302,-883 302,-883 302,-923.72 291.15,-969.87 283.21,-998.21"/>
<polygon fill="black" stroke="black" points="279.75,-997.57 280.33,-1008.15 286.47,-999.51 279.75,-997.57"/>
</g>
<!-- 72&#45;&gt;20 -->
<g id="edge73" class="edge">
<title>72&#45;&gt;20</title>
<path fill="none" stroke="black" d="M814,-575.7C814,-567.98 814,-558.71 814,-550.11"/>
<polygon fill="black" stroke="black" points="817.5,-550.1 814,-540.1 810.5,-550.1 817.5,-550.1"/>
</g>
<!-- 83&#45;&gt;0 -->
<g id="edge84" class="edge">
<title>83&#45;&gt;0</title>
<path fill="none" stroke="black" d="M52.89,-899.86C56.7,-910.12 61.06,-923.59 63,-936 66.24,-956.69 63.84,-980.3 60.84,-998.01"/>
<polygon fill="black" stroke="black" points="57.34,-997.72 58.95,-1008.19 64.22,-999 57.34,-997.72"/>
</g>
<!-- 82&#45;&gt;4 -->
<g id="edge83" class="edge">
<title>82&#45;&gt;4</title>
<path fill="none" stroke="black" d="M137,-575.7C137,-567.98 137,-558.71 137,-550.11"/>
<polygon fill="black" stroke="black" points="140.5,-550.1 137,-540.1 133.5,-550.1 140.5,-550.1"/>
</g>
<!-- 81&#45;&gt;5 -->
<g id="edge82" class="edge">
<title>81&#45;&gt;5</title>
<path fill="none" stroke="black" d="M247,-575.7C247,-567.98 247,-558.71 247,-550.11"/>
<polygon fill="black" stroke="black" points="250.5,-550.1 247,-540.1 243.5,-550.1 250.5,-550.1"/>
</g>
<!-- 79&#45;&gt;3 -->
<g id="edge80" class="edge">
<title>79&#45;&gt;3</title>
<path fill="none" stroke="black" d="M382.31,-35.68C393.09,-61.85 412,-114.38 412,-161 412,-883 412,-883 412,-883 412,-923.72 401.15,-969.87 393.21,-998.21"/>
<polygon fill="black" stroke="black" points="389.75,-997.57 390.33,-1008.15 396.47,-999.51 389.75,-997.57"/>
</g>
<!-- 78&#45;&gt;23 -->
<g id="edge79" class="edge">
<title>78&#45;&gt;23</title>
<path fill="none" stroke="black" d="M586,-719.7C586,-711.98 586,-702.71 586,-694.11"/>
<polygon fill="black" stroke="black" points="589.5,-694.1 586,-684.1 582.5,-694.1 589.5,-694.1"/>
</g>
</g>
</svg>
